<svg width="121" height="120" viewBox="0 0 121 120" fill="none" xmlns="http://www.w3.org/2000/svg">
<path d="M21.1405 65.856L24.0205 100.512C24.0205 100.512 22.4125 101.256 22.5325 101.76C22.6525 102.264 22.7725 103.872 23.3965 104.976C24.0205 106.08 37.0525 109.824 48.9566 106.848C60.8605 103.872 62.3486 101.016 62.3486 100.272C62.3486 99.528 62.9246 96.024 62.3486 94.872C61.7726 93.72 61.4366 93.648 61.4366 93.648C61.4366 93.648 64.2686 68.328 63.5725 63.336C63.5725 63.336 64.7725 62.4 64.7725 61.368C64.7725 60.336 64.3405 54.84 64.1726 53.64C64.0046 52.44 46.9646 46.68 32.7565 49.872C18.5485 53.064 18.6445 58.68 18.6445 59.136C18.6445 59.592 19.1965 63.744 19.1965 64.224C19.1965 64.704 21.1405 65.856 21.1405 65.856Z" fill="#CD2727"/>
<path d="M24.668 101.112C26.252 101.688 27.86 102.12 29.516 102.408C31.172 102.72 32.828 102.912 34.508 103.056C37.844 103.296 41.204 103.32 44.564 103.08C44.972 103.056 45.404 103.032 45.812 103.008L47.06 102.864C47.468 102.816 47.9 102.792 48.308 102.72L49.532 102.504C50.348 102.36 51.164 102.168 51.956 101.928C52.364 101.808 52.748 101.688 53.132 101.544L53.732 101.328L54.02 101.232L54.308 101.112L55.436 100.584C55.796 100.392 56.156 100.176 56.516 99.96C57.236 99.528 57.884 99.024 58.508 98.472C58.676 98.328 58.82 98.184 58.964 98.04L59.396 97.584C59.54 97.44 59.66 97.272 59.78 97.104L59.972 96.864C60.044 96.768 60.092 96.696 60.14 96.6C60.62 95.928 61.004 95.16 61.244 94.368C61.052 95.184 60.716 95.976 60.236 96.672C60.188 96.768 60.14 96.864 60.068 96.936L59.876 97.2C59.756 97.368 59.636 97.536 59.492 97.704L59.06 98.184C58.916 98.352 58.772 98.496 58.628 98.64C58.004 99.216 57.332 99.744 56.636 100.2C56.276 100.416 55.916 100.656 55.532 100.848L54.38 101.4C52.82 102.072 51.188 102.576 49.532 102.888L48.284 103.128C47.876 103.2 47.444 103.224 47.036 103.296L45.788 103.44C45.356 103.488 44.948 103.488 44.516 103.536C41.156 103.752 37.772 103.704 34.412 103.416C32.732 103.248 31.076 102.984 29.42 102.624C28.604 102.432 27.788 102.24 26.972 101.976C26.228 101.76 25.436 101.448 24.668 101.112Z" fill="#000001"/>
<path d="M21.1406 65.856C22.9166 66.48 24.7166 66.984 26.5406 67.392C28.3646 67.8 30.2126 68.136 32.0606 68.376C35.7806 68.856 39.5246 69.024 43.2686 68.88C45.1406 68.808 47.0126 68.64 48.8606 68.424C49.3166 68.376 49.7966 68.304 50.2526 68.232L51.6446 68.016L53.0126 67.752L53.7086 67.632C53.9486 67.584 54.1646 67.536 54.4046 67.464C56.2286 67.056 58.0046 66.48 59.7326 65.76C59.9486 65.664 60.1646 65.568 60.3806 65.472L61.0046 65.16C61.2206 65.04 61.4126 64.92 61.6046 64.824L61.9166 64.656L62.2046 64.464C62.5886 64.224 62.9726 63.936 63.3326 63.624L63.5966 63.384C63.6926 63.312 63.7646 63.216 63.8366 63.144C64.0046 62.976 64.1486 62.808 64.2926 62.616C63.7406 63.384 63.0686 64.056 62.2766 64.56L61.9886 64.776L61.7006 64.968C61.5086 65.088 61.2926 65.208 61.1006 65.328L60.4766 65.664C60.2606 65.784 60.0686 65.88 59.8526 65.976C58.9886 66.384 58.1246 66.72 57.2366 67.032L55.8926 67.464C55.4366 67.584 54.9806 67.704 54.5246 67.824C54.2846 67.872 54.0686 67.944 53.8286 67.992L53.1326 68.136L51.7406 68.424L50.3486 68.664C49.8926 68.736 49.4126 68.832 48.9566 68.88C47.0846 69.12 45.2126 69.312 43.3166 69.384C39.5486 69.528 35.7806 69.312 32.0366 68.76C30.1646 68.472 28.3166 68.088 26.4926 67.632C26.0366 67.512 25.5806 67.392 25.1246 67.248C24.6686 67.104 24.2126 66.984 23.7806 66.84C22.8686 66.552 22.0046 66.24 21.1406 65.856Z" fill="#000001"/>
<path d="M19.5547 59.856C19.9867 60.144 20.4187 60.408 20.8987 60.624C21.1387 60.72 21.3547 60.84 21.5947 60.936L22.3147 61.224C22.5547 61.32 22.7947 61.392 23.0347 61.488C23.2747 61.584 23.5147 61.68 23.7547 61.728L24.4987 61.944L24.8587 62.064L25.2187 62.16C27.2107 62.688 29.2267 63.048 31.2667 63.264C31.7707 63.312 32.2747 63.384 32.8027 63.408L34.3387 63.528C34.8427 63.576 35.3707 63.576 35.8747 63.6C36.3787 63.624 36.9067 63.648 37.4107 63.648C38.4427 63.648 39.4747 63.648 40.4827 63.648L43.5547 63.528C47.6587 63.312 51.7387 62.808 55.6507 61.608C56.6347 61.32 57.5947 60.936 58.5067 60.528C59.4427 60.096 60.3307 59.592 61.1467 58.992C61.9867 58.392 62.6827 57.648 63.2587 56.808C63.5227 56.376 63.7147 55.896 63.8347 55.392C63.9547 54.888 63.9307 54.36 63.7627 53.88C63.9547 54.36 64.0027 54.888 63.9067 55.416C63.8107 55.92 63.6187 56.4 63.3547 56.856C62.8267 57.744 62.1067 58.536 61.2907 59.16C60.4747 59.784 59.5867 60.336 58.6507 60.792C57.7147 61.248 56.7547 61.632 55.7707 61.968C55.2907 62.136 54.7867 62.28 54.2827 62.424C53.7787 62.568 53.2747 62.688 52.7707 62.808C51.7627 63.048 50.7547 63.216 49.7227 63.384C47.6827 63.696 45.6187 63.912 43.5547 64.032C39.4267 64.224 35.2987 64.2 31.1947 63.648C29.1547 63.384 27.1147 62.976 25.1227 62.4L24.7387 62.304L24.3787 62.184L23.6347 61.944C23.3947 61.872 23.1547 61.752 22.9147 61.68C22.6747 61.608 22.4347 61.488 22.1947 61.392C21.2827 60.96 20.3947 60.456 19.5547 59.856Z" fill="#000001"/>
<path d="M21.1399 58.896C21.1399 58.896 30.4039 63.096 46.1959 61.32C61.9879 59.544 62.5159 56.016 62.2519 53.88C61.9879 51.744 46.7959 47.976 36.2839 50.544C25.7719 53.112 17.8519 56.208 21.1399 58.896Z" fill="#000001"/>
<path d="M44.1576 72.48C44.1576 72.48 42.2616 98.808 43.7496 98.904C45.2376 99 46.1496 66.288 44.1576 72.48Z" fill="#000001"/>
<path d="M52.7475 71.9041C52.7475 71.9041 50.8515 98.2321 52.3395 98.3281C53.8275 98.4241 54.7635 65.6881 52.7475 71.9041Z" fill="#000001"/>
<path d="M59.3021 69.696C59.3021 69.696 57.4061 95.2559 58.8941 95.3519C60.3821 95.448 61.2941 63.648 59.3021 69.696Z" fill="#000001"/>
<path d="M35.6347 72.48C35.6347 72.48 37.4587 98.808 36.0187 98.904C34.5787 99 33.7387 66.288 35.6347 72.48Z" fill="#000001"/>
<path d="M25.7715 71.9041C25.7715 71.9041 27.5955 98.2321 26.1555 98.3281C24.7155 98.4241 23.8755 65.6881 25.7715 71.9041Z" fill="#000001"/>
<path d="M62.0635 79.44C56.1115 80.592 52.0075 86.376 52.9675 92.376C53.3755 95.016 54.8155 97.56 58.4875 98.688C67.5115 101.448 77.3275 93.936 74.6635 85.656C72.9835 80.448 67.3435 78.408 62.0635 79.44Z" fill="#F3CB5C"/>
<path d="M59.3281 87.72C59.7361 88.2 60.1441 88.68 60.5281 89.16C60.9121 89.64 61.2961 90.144 61.6801 90.624C62.4241 91.608 63.1681 92.616 63.8641 93.624L62.7121 93.576C63.6241 92.232 64.5841 90.912 65.5681 89.616C66.5281 88.32 67.5361 87.024 68.5681 85.776C69.6001 84.528 70.6321 83.256 71.7121 82.056C72.7921 80.856 73.8961 79.632 75.0961 78.504C74.3281 79.944 73.4641 81.336 72.5761 82.704C71.6881 84.072 70.7761 85.416 69.8161 86.736C68.8561 88.056 67.8961 89.352 66.8881 90.648C65.8801 91.944 64.8721 93.192 63.8161 94.44L63.1441 95.232L62.6641 94.392C62.0641 93.312 61.4641 92.208 60.9121 91.104C60.6241 90.552 60.3601 90 60.0961 89.424C59.8321 88.872 59.5681 88.296 59.3281 87.72Z" fill="#9A0000"/>
<path d="M35.5664 21.096C35.5664 21.096 56.1344 17.352 58.0064 17.256C59.8784 17.16 67.0304 48.624 67.0304 48.624C67.0304 48.624 44.5664 58.56 43.6544 55.056C42.7424 51.552 35.5664 21.096 35.5664 21.096Z" fill="#F2EBEB"/>
<path d="M43.9414 31.2239C44.4454 30.6479 44.9974 30.0959 45.5494 29.5919C45.8374 29.3279 46.1494 29.0879 46.4614 28.8719C46.5574 28.8239 46.6534 28.7759 46.7494 28.7279C46.7974 28.7039 46.8694 28.6799 46.9414 28.6799C46.9894 28.6799 47.0134 28.6799 47.0614 28.6799C47.1094 28.7039 47.1574 28.7279 47.2054 28.7519C47.2774 28.8239 47.3254 28.8959 47.3254 28.9919C47.3254 29.0639 47.3254 29.1119 47.3254 29.1839C47.3254 29.2799 47.3014 29.3999 47.2774 29.4959C47.2294 29.6879 47.1814 29.8799 47.1334 30.0479C47.1094 30.1199 47.0854 30.2159 47.0854 30.3119C47.0854 30.3359 47.0854 30.3599 47.0854 30.3839C47.0854 30.3599 47.0854 30.3599 47.0614 30.3359C47.0374 30.3119 47.0374 30.3119 47.0134 30.2879C46.9894 30.2879 46.9894 30.2879 46.9654 30.2879C46.9414 30.2879 46.9894 30.2879 47.0134 30.2639C47.0374 30.2399 47.0854 30.2159 47.1094 30.1919C47.1814 30.1439 47.2534 30.0959 47.3254 30.0239L47.7574 29.6399C48.3334 29.1359 48.9334 28.6559 49.5574 28.1999C49.7254 28.1039 49.8934 27.9839 50.0614 27.8879C50.2534 27.7679 50.4454 27.6959 50.6374 27.6239C50.6614 27.6239 50.7094 27.5999 50.7334 27.5999C50.7814 27.5999 50.8054 27.5999 50.8534 27.5999C50.9014 27.5999 50.9494 27.5999 50.9974 27.6239C51.0694 27.6479 51.1174 27.6719 51.1654 27.7199C51.2134 27.7679 51.2374 27.8159 51.2614 27.8879C51.2614 27.9359 51.2614 27.9839 51.2614 28.0319C51.2614 28.1039 51.2374 28.1519 51.2134 28.2239C51.1894 28.3199 51.1414 28.4159 51.0934 28.5119L50.9734 28.7759C50.9014 28.9439 50.8294 29.1359 50.7814 29.2799C50.7814 29.3039 50.7574 29.3519 50.7574 29.3519V29.3279L50.7334 29.2799C50.7094 29.2559 50.7094 29.2319 50.6854 29.2319L50.6374 29.2079H50.6134C50.5654 29.2079 50.5654 29.2079 50.5654 29.2079C50.6374 29.1599 50.7094 29.1359 50.7574 29.0879C51.0454 28.8719 51.3334 28.6079 51.6214 28.3679C51.9094 28.1279 52.1974 27.8639 52.5094 27.6479C52.6534 27.5279 52.8214 27.4319 52.9894 27.3119C53.0854 27.2639 53.1574 27.2159 53.2534 27.1679C53.3494 27.1199 53.4694 27.0959 53.5894 27.0959C53.6614 27.0959 53.7334 27.1439 53.7814 27.2159C53.8294 27.2639 53.8294 27.3359 53.8534 27.4079C53.8534 27.5039 53.8534 27.6239 53.8294 27.7199C53.8054 27.9119 53.7814 28.1039 53.7814 28.2719C53.7814 28.3679 53.7814 28.4639 53.8054 28.5359C53.8054 28.5839 53.8294 28.6079 53.8534 28.6319C53.8774 28.6559 53.9254 28.6559 53.9494 28.6559C54.1174 28.5839 54.2854 28.4879 54.4054 28.3679C54.3334 28.4399 54.2614 28.5119 54.1894 28.5599C54.1174 28.6319 54.0454 28.6799 53.9494 28.7279C53.9014 28.7519 53.8294 28.7519 53.7814 28.7039C53.7334 28.6559 53.7094 28.6079 53.6854 28.5599C53.6614 28.4639 53.6374 28.3679 53.6374 28.2719C53.6374 28.0799 53.6374 27.8879 53.6374 27.6959C53.6374 27.5999 53.6374 27.5279 53.6374 27.4319C53.6374 27.4079 53.6134 27.3839 53.6134 27.3599C53.6134 27.3359 53.5894 27.3359 53.5654 27.3359C53.4934 27.3359 53.4214 27.3599 53.3494 27.4079C53.2774 27.4559 53.2054 27.5039 53.1334 27.5519C52.9894 27.6479 52.8454 27.7679 52.7014 27.8879C52.4134 28.1279 52.1254 28.3919 51.8614 28.6559C51.5974 28.9199 51.3094 29.1839 50.9974 29.4239C50.9014 29.4959 50.8294 29.5679 50.7094 29.6159C50.6614 29.6399 50.5894 29.6639 50.5174 29.6399H50.4694L50.4214 29.6159C50.3974 29.5919 50.3494 29.5679 50.3494 29.5439C50.3254 29.5199 50.3254 29.4959 50.3254 29.4719C50.3254 29.4479 50.3254 29.4239 50.3254 29.4239C50.3254 29.3519 50.3254 29.2799 50.3494 29.2079C50.3974 29.0159 50.4694 28.8239 50.5414 28.6559L50.6374 28.3919C50.6614 28.2959 50.7094 28.2239 50.7334 28.1519C50.7334 28.1279 50.7574 28.1039 50.7574 28.0559C50.7574 28.0319 50.7574 28.0319 50.7814 28.0799C50.8054 28.1279 50.8054 28.1039 50.8294 28.1039H50.8054H50.7574C50.5894 28.1519 50.4454 28.2239 50.3014 28.3199C50.1334 28.4159 49.9894 28.5119 49.8454 28.6079C49.2214 29.0159 48.6214 29.4719 48.0694 29.9519L47.6374 30.3359C47.5654 30.4079 47.4694 30.4559 47.3974 30.5279C47.3494 30.5519 47.3014 30.5999 47.2534 30.6239C47.1814 30.6719 47.1094 30.6959 47.0374 30.6959C46.9894 30.6959 46.9654 30.6959 46.9174 30.6719C46.8694 30.6479 46.8214 30.6239 46.7974 30.5999C46.7734 30.5759 46.7494 30.5279 46.7494 30.5039C46.7494 30.4799 46.7254 30.4559 46.7254 30.4319C46.7254 30.3599 46.7254 30.2879 46.7254 30.2399C46.7494 30.1439 46.7734 30.0479 46.7974 29.9279C46.8454 29.7359 46.9174 29.5679 46.9654 29.3759C46.9894 29.3039 47.0134 29.2079 47.0134 29.1119C47.0374 29.0399 46.9894 28.9679 47.0134 28.9919C47.0374 29.0159 46.9894 28.9919 46.9174 29.0159C46.8454 29.0399 46.7494 29.0879 46.6774 29.1119C46.3414 29.3039 46.0534 29.5199 45.7414 29.7359C45.0934 30.2159 44.5174 30.7199 43.9414 31.2239Z" fill="#9A0000"/>
<path d="M45.6445 35.2559C46.1485 34.6799 46.7005 34.1519 47.2525 33.6239C47.5405 33.3599 47.8525 33.1199 48.1645 32.9039C48.2605 32.8559 48.3565 32.8079 48.4525 32.7599C48.5005 32.7359 48.5725 32.7119 48.6445 32.7119C48.6925 32.7119 48.7165 32.7119 48.7645 32.7119C48.8125 32.7119 48.8605 32.7359 48.9085 32.7839C48.9805 32.8559 49.0285 32.9279 49.0285 33.0239C49.0285 33.0959 49.0285 33.1439 49.0285 33.2159C49.0285 33.3119 49.0045 33.4319 48.9805 33.5279C48.9325 33.7199 48.8845 33.9119 48.8365 34.0799C48.8125 34.1759 48.7885 34.2479 48.7885 34.3439C48.7885 34.3679 48.7885 34.3919 48.7885 34.4159C48.7885 34.3919 48.7885 34.3919 48.7645 34.3679C48.7405 34.3439 48.7405 34.3439 48.7165 34.3199C48.6925 34.3199 48.6925 34.3199 48.6685 34.3199C48.6445 34.3199 48.6925 34.3199 48.7165 34.2959C48.7405 34.2719 48.7885 34.2479 48.8125 34.2239C48.8845 34.1759 48.9565 34.1279 49.0285 34.0559L49.4605 33.6719C50.0365 33.1679 50.6365 32.6879 51.2605 32.2319C51.4285 32.1119 51.5965 32.0159 51.7645 31.9199C51.9325 31.7999 52.1245 31.7279 52.3405 31.6559C52.3645 31.6559 52.4125 31.6319 52.4365 31.6319C52.4605 31.6319 52.5085 31.6319 52.5325 31.6319C52.5805 31.6319 52.6285 31.6319 52.6765 31.6559C52.7965 31.7039 52.8925 31.7999 52.9165 31.9199C52.9165 31.9679 52.9165 32.0159 52.9165 32.0639C52.9165 32.1359 52.8925 32.1839 52.8925 32.2559C52.8685 32.3519 52.8205 32.4479 52.7725 32.5439L52.6525 32.8079C52.5805 32.9759 52.5085 33.1679 52.4605 33.3119C52.4365 33.3359 52.4365 33.3839 52.4365 33.3839V33.3599C52.4365 33.3359 52.4365 33.3359 52.4125 33.3119C52.3885 33.2879 52.3885 33.2639 52.3645 33.2639C52.3405 33.2639 52.3405 33.2399 52.3165 33.2399H52.2925C52.2445 33.2399 52.2445 33.2399 52.2445 33.2399C52.3165 33.1919 52.3885 33.1679 52.4365 33.1199C52.7245 32.9039 53.0125 32.6399 53.3005 32.3999C53.5885 32.1599 53.8765 31.8959 54.1885 31.6799C54.3325 31.5599 54.5005 31.4639 54.6685 31.3439C54.7645 31.2959 54.8365 31.2479 54.9325 31.1999C55.0285 31.1519 55.1485 31.1279 55.2685 31.1279C55.3405 31.1279 55.4125 31.1759 55.4605 31.2479C55.5085 31.2959 55.5325 31.3679 55.5325 31.4399C55.5325 31.5359 55.5325 31.6559 55.5085 31.7519C55.4845 31.9439 55.4605 32.1359 55.4605 32.3039C55.4605 32.3999 55.4605 32.4959 55.4845 32.5679C55.4845 32.6159 55.5085 32.6399 55.5325 32.6639C55.5565 32.6879 55.6045 32.6879 55.6285 32.6879C55.7965 32.6159 55.9645 32.5199 56.1085 32.3999C56.0365 32.4719 55.9645 32.5439 55.8925 32.6159C55.8205 32.6879 55.7485 32.7359 55.6525 32.7839C55.6045 32.8079 55.5325 32.8079 55.4845 32.7599C55.4365 32.7119 55.4125 32.6639 55.3885 32.6159C55.3645 32.5199 55.3405 32.4239 55.3405 32.3279C55.3165 32.1359 55.3405 31.9439 55.3405 31.7519C55.3405 31.6559 55.3405 31.5839 55.3405 31.4879C55.3405 31.4639 55.3165 31.4399 55.3165 31.4159C55.2925 31.3919 55.2925 31.3919 55.2685 31.3919C55.1965 31.3919 55.1245 31.4159 55.0525 31.4639C54.9805 31.5119 54.8845 31.5599 54.8125 31.6079C54.6685 31.7039 54.5245 31.8239 54.3805 31.9439C54.0925 32.1839 53.8045 32.4479 53.5405 32.7119C53.2525 32.9759 52.9885 33.2399 52.6765 33.4799C52.5805 33.5519 52.5085 33.6239 52.3885 33.6719C52.3405 33.6959 52.2685 33.7199 52.1965 33.6959H52.1485C52.1245 33.6959 52.1005 33.6719 52.1005 33.6719C52.0765 33.6479 52.0525 33.6239 52.0285 33.5999C52.0045 33.5759 52.0045 33.5519 52.0045 33.5279C52.0045 33.5039 52.0045 33.4799 52.0045 33.4799C52.0045 33.4079 52.0045 33.3359 52.0285 33.2639C52.0765 33.0719 52.1485 32.8799 52.2205 32.6879L52.3165 32.4239C52.3405 32.3519 52.3885 32.2559 52.4125 32.1839C52.4125 32.1599 52.4365 32.1119 52.4365 32.0879C52.4365 32.0879 52.4365 32.0639 52.4605 32.1119C52.4845 32.1599 52.4845 32.1359 52.5085 32.1359C52.5325 32.1359 52.5325 32.1359 52.5085 32.1359C52.4845 32.1359 52.4845 32.1359 52.4845 32.1359C52.4605 32.1359 52.4605 32.1359 52.4365 32.1359C52.2685 32.1839 52.1245 32.2559 51.9805 32.3519C51.8365 32.4479 51.6685 32.5439 51.5245 32.6399C50.9005 33.0719 50.3245 33.5279 49.7485 34.0319L49.3165 34.4159C49.2445 34.4879 49.1725 34.5359 49.0765 34.6079C49.0285 34.6319 48.9805 34.6799 48.9325 34.7039C48.8605 34.7519 48.7885 34.7759 48.7165 34.7759C48.6685 34.7759 48.6445 34.7759 48.5965 34.7519C48.5485 34.7279 48.5245 34.7039 48.4765 34.6799C48.4525 34.6559 48.4285 34.6079 48.4285 34.5839C48.4285 34.5599 48.4045 34.5359 48.4045 34.5119C48.4045 34.4399 48.4045 34.3679 48.4045 34.2959C48.4285 34.1999 48.4525 34.1039 48.4765 33.9839C48.5245 33.7919 48.5965 33.6239 48.6445 33.4319C48.6685 33.3599 48.6925 33.2639 48.6925 33.1679C48.7165 33.0959 48.6925 33.0239 48.6925 33.0479C48.6925 33.0719 48.6685 33.0479 48.5965 33.0719C48.5245 33.0959 48.4285 33.1439 48.3565 33.1679C48.0445 33.3599 47.7325 33.5759 47.4205 33.7919C46.7965 34.2479 46.2205 34.7519 45.6445 35.2559Z" fill="#9A0000"/>
<path d="M45.8125 39.504C46.3165 38.928 46.8685 38.376 47.4205 37.872C47.7085 37.608 48.0205 37.368 48.3325 37.152C48.4285 37.104 48.5245 37.056 48.6205 37.008C48.6685 36.984 48.7405 36.96 48.8125 36.96C48.8605 36.96 48.8845 36.96 48.9325 36.96C48.9805 36.984 49.0285 37.008 49.0765 37.032C49.1485 37.08 49.1965 37.176 49.1965 37.248C49.1965 37.32 49.1965 37.368 49.1965 37.44C49.1965 37.536 49.1725 37.656 49.1485 37.752C49.1005 37.944 49.0525 38.136 49.0045 38.304C48.9805 38.376 48.9565 38.472 48.9565 38.568C48.9565 38.592 48.9565 38.616 48.9565 38.64C48.9565 38.616 48.9565 38.616 48.9325 38.592C48.9085 38.568 48.9085 38.568 48.8845 38.544C48.8605 38.544 48.8605 38.544 48.8365 38.544C48.8125 38.544 48.8605 38.544 48.8845 38.52C48.9085 38.496 48.9565 38.472 48.9805 38.448C49.0525 38.4 49.1245 38.352 49.1965 38.28L49.6285 37.896C50.2045 37.392 50.8045 36.912 51.4285 36.456C51.5965 36.36 51.7645 36.24 51.9325 36.144C52.1245 36.024 52.3165 35.952 52.5085 35.88C52.5325 35.88 52.5805 35.856 52.6045 35.856C52.6525 35.856 52.6765 35.832 52.7245 35.832C52.7725 35.832 52.8205 35.832 52.8685 35.856C52.9405 35.88 52.9885 35.904 53.0365 35.952C53.0845 36 53.1085 36.048 53.1085 36.12C53.1085 36.168 53.1325 36.216 53.1325 36.264C53.1325 36.336 53.1085 36.384 53.0845 36.456C53.0605 36.552 53.0125 36.648 52.9645 36.744L52.8445 37.008C52.7725 37.176 52.7005 37.368 52.6525 37.512C52.6525 37.536 52.6285 37.584 52.6285 37.584V37.56L52.6045 37.512C52.5805 37.488 52.5805 37.464 52.5565 37.464L52.5085 37.44H52.4845C52.4365 37.44 52.4365 37.44 52.4365 37.44C52.5085 37.392 52.5805 37.368 52.6285 37.32C52.9165 37.104 53.2045 36.84 53.4925 36.6C53.7805 36.36 54.0685 36.096 54.3805 35.88C54.5245 35.76 54.6925 35.664 54.8605 35.544C54.9565 35.496 55.0285 35.448 55.1245 35.4C55.2205 35.352 55.3405 35.328 55.4605 35.328C55.5325 35.328 55.6045 35.376 55.6525 35.448C55.7005 35.496 55.7005 35.568 55.7245 35.64C55.7245 35.736 55.7245 35.856 55.7005 35.952C55.6765 36.144 55.6525 36.336 55.6525 36.528C55.6525 36.624 55.6525 36.72 55.6765 36.792C55.6765 36.84 55.7005 36.864 55.7245 36.888C55.7485 36.912 55.7965 36.912 55.8205 36.912C55.9885 36.84 56.1565 36.744 56.3005 36.624C56.2285 36.696 56.1565 36.768 56.0845 36.84C56.0125 36.912 55.9405 36.96 55.8445 37.008C55.7965 37.032 55.7245 37.032 55.6765 36.984C55.6285 36.936 55.6045 36.888 55.5805 36.84C55.5565 36.744 55.5325 36.648 55.5325 36.552C55.5325 36.36 55.5325 36.168 55.5325 35.976C55.5325 35.88 55.5325 35.808 55.5325 35.712C55.5325 35.688 55.5085 35.664 55.5085 35.64C55.4845 35.616 55.4845 35.616 55.4605 35.616C55.3885 35.616 55.3165 35.64 55.2445 35.688C55.1725 35.736 55.0765 35.784 55.0045 35.832C54.8605 35.928 54.7165 36.048 54.5725 36.168C54.2845 36.408 53.9965 36.672 53.7325 36.936C53.4685 37.2 53.1805 37.44 52.8685 37.68C52.7725 37.752 52.7005 37.824 52.5805 37.872C52.5325 37.896 52.4605 37.92 52.3885 37.896H52.3405L52.2925 37.872C52.2685 37.848 52.2205 37.824 52.2205 37.8C52.1965 37.776 52.1965 37.752 52.1965 37.728C52.1965 37.704 52.1965 37.68 52.1965 37.68C52.1965 37.608 52.1965 37.536 52.2205 37.464C52.2685 37.248 52.3405 37.08 52.4125 36.888L52.5085 36.624C52.5325 36.528 52.5805 36.456 52.6045 36.384C52.6045 36.36 52.6285 36.336 52.6285 36.288C52.6285 36.264 52.6285 36.264 52.6525 36.312C52.6765 36.36 52.6765 36.336 52.7005 36.336C52.7245 36.336 52.7245 36.336 52.7005 36.336H52.6765L52.6285 36.36C52.4605 36.408 52.3165 36.48 52.1725 36.576C52.0045 36.672 51.8605 36.768 51.7165 36.864C51.0925 37.296 50.4925 37.752 49.9405 38.256L49.4845 38.616C49.4125 38.688 49.3165 38.736 49.2445 38.808C49.1965 38.832 49.1485 38.88 49.1005 38.904C49.0285 38.952 48.9565 38.976 48.8845 38.976C48.8365 38.976 48.8125 38.976 48.7645 38.952C48.7165 38.928 48.6685 38.904 48.6445 38.88C48.6205 38.856 48.5965 38.808 48.5965 38.784C48.5965 38.76 48.5725 38.736 48.5725 38.712C48.5725 38.64 48.5725 38.568 48.5725 38.496C48.5965 38.4 48.6205 38.304 48.6445 38.184C48.6925 37.992 48.7645 37.824 48.8125 37.632C48.8365 37.56 48.8605 37.464 48.8605 37.392C48.8845 37.32 48.8605 37.248 48.8605 37.272C48.8605 37.296 48.8365 37.272 48.7645 37.296C48.6925 37.32 48.5965 37.368 48.5245 37.392C48.2125 37.584 47.9005 37.8 47.5885 38.016C46.9645 38.52 46.3885 39.024 45.8125 39.504Z" fill="#9A0000"/>
<path d="M47.5195 43.536C48.0235 42.96 48.5755 42.432 49.1275 41.904C49.4155 41.64 49.7275 41.4 50.0395 41.184C50.1355 41.136 50.2315 41.088 50.3275 41.04C50.3755 41.016 50.4475 40.992 50.5195 40.992C50.5675 40.992 50.5915 40.992 50.6395 40.992C50.6875 40.992 50.7355 41.016 50.7835 41.064C50.8555 41.112 50.9035 41.208 50.9035 41.28C50.9035 41.352 50.9035 41.4 50.9035 41.472C50.9035 41.568 50.8795 41.688 50.8555 41.784C50.8075 41.976 50.7595 42.168 50.7115 42.336C50.6875 42.432 50.6635 42.504 50.6635 42.6C50.6635 42.624 50.6635 42.648 50.6635 42.672C50.6635 42.648 50.6635 42.648 50.6395 42.624C50.6155 42.6 50.6155 42.6 50.5915 42.576C50.5675 42.576 50.5675 42.576 50.5435 42.576C50.5195 42.576 50.5675 42.576 50.5915 42.552C50.6155 42.528 50.6635 42.504 50.6875 42.48C50.7595 42.432 50.8315 42.384 50.9035 42.312L51.3355 41.928C51.9115 41.424 52.5115 40.944 53.1355 40.488C53.3035 40.368 53.4715 40.272 53.6395 40.176C53.8075 40.056 53.9995 39.984 54.2155 39.912C54.2395 39.912 54.2875 39.888 54.3115 39.888C54.3355 39.888 54.3835 39.888 54.4075 39.888C54.4555 39.888 54.5035 39.888 54.5515 39.912C54.6715 39.96 54.7675 40.056 54.7915 40.176C54.7915 40.224 54.7915 40.272 54.7915 40.32C54.7915 40.392 54.7675 40.44 54.7675 40.512C54.7435 40.608 54.6955 40.704 54.6475 40.8L54.5275 41.064C54.4555 41.232 54.3835 41.424 54.3355 41.568C54.3355 41.592 54.3115 41.64 54.3115 41.64C54.3115 41.64 54.3115 41.64 54.3115 41.616C54.3115 41.592 54.3115 41.592 54.2875 41.568C54.2635 41.544 54.2635 41.52 54.2395 41.52C54.2155 41.52 54.2155 41.496 54.1915 41.496H54.1675C54.1195 41.496 54.1195 41.496 54.1195 41.496C54.1915 41.448 54.2635 41.424 54.3115 41.376C54.5995 41.16 54.8875 40.896 55.1755 40.656C55.4635 40.416 55.7515 40.152 56.0635 39.936C56.2075 39.816 56.3755 39.72 56.5435 39.6C56.6395 39.552 56.7115 39.504 56.8075 39.456C56.9035 39.408 57.0235 39.384 57.1435 39.384C57.2155 39.384 57.2875 39.432 57.3355 39.504C57.3835 39.552 57.4075 39.624 57.4075 39.696C57.4075 39.792 57.4075 39.912 57.3835 40.008C57.3595 40.2 57.3355 40.392 57.3355 40.56C57.3355 40.656 57.3355 40.752 57.3595 40.824C57.3595 40.872 57.3835 40.896 57.4075 40.92C57.4315 40.944 57.4795 40.944 57.5035 40.944C57.6715 40.872 57.8395 40.776 57.9835 40.656C57.9115 40.728 57.8395 40.8 57.7675 40.872C57.6955 40.944 57.6235 40.992 57.5275 41.04C57.4795 41.064 57.4075 41.064 57.3595 41.016C57.3115 40.968 57.2875 40.92 57.2635 40.872C57.2395 40.776 57.2155 40.68 57.2155 40.584C57.1915 40.392 57.2155 40.2 57.2155 40.008C57.2155 39.912 57.2155 39.84 57.2155 39.744C57.2155 39.72 57.1915 39.696 57.1915 39.672C57.1675 39.648 57.1675 39.648 57.1435 39.648C57.0715 39.648 56.9995 39.672 56.9275 39.72C56.8555 39.768 56.7595 39.816 56.6875 39.864C56.5435 39.96 56.3995 40.08 56.2555 40.2C55.9675 40.44 55.6795 40.704 55.4155 40.968C55.1275 41.232 54.8635 41.496 54.5515 41.736C54.4555 41.808 54.3835 41.88 54.2635 41.928C54.2155 41.952 54.1435 41.976 54.0715 41.952H54.0235C53.9995 41.952 53.9755 41.928 53.9755 41.928C53.9515 41.904 53.9275 41.88 53.9035 41.856C53.8795 41.832 53.8795 41.808 53.8795 41.784C53.8795 41.76 53.8795 41.736 53.8795 41.736C53.8795 41.664 53.8795 41.592 53.9035 41.52C53.9515 41.328 54.0235 41.136 54.0955 40.944L54.1915 40.68C54.2155 40.608 54.2635 40.512 54.2875 40.44C54.2875 40.416 54.3115 40.368 54.3115 40.344C54.3115 40.32 54.3115 40.32 54.3355 40.368C54.3595 40.416 54.3595 40.392 54.3835 40.392H54.3595L54.3115 40.416C54.1435 40.464 53.9995 40.536 53.8555 40.632C53.7115 40.728 53.5435 40.824 53.3995 40.92C52.7755 41.352 52.1995 41.808 51.6235 42.312L51.1915 42.696C51.1195 42.768 51.0475 42.816 50.9515 42.888C50.9035 42.912 50.8555 42.96 50.8075 42.984C50.7355 43.032 50.6635 43.056 50.5915 43.056C50.5435 43.056 50.5195 43.056 50.4715 43.032C50.4235 43.008 50.3995 42.984 50.3515 42.96C50.3275 42.936 50.3035 42.888 50.3035 42.864C50.3035 42.84 50.2795 42.816 50.2795 42.792C50.2795 42.72 50.2795 42.648 50.2795 42.576C50.3035 42.48 50.3275 42.384 50.3515 42.264C50.3995 42.072 50.4715 41.904 50.5195 41.712C50.5435 41.64 50.5675 41.544 50.5675 41.448C50.5915 41.376 50.5435 41.304 50.5675 41.328C50.5915 41.352 50.5435 41.328 50.4715 41.352C50.3995 41.376 50.3035 41.424 50.2315 41.448C49.9195 41.64 49.6075 41.856 49.2955 42.072C48.6715 42.552 48.0955 43.056 47.5195 43.536Z" fill="#9A0000"/>
<path d="M81.0208 21.816C81.0208 21.816 65.7808 21.936 63.9568 21.816C62.1328 21.696 60.6448 23.52 60.6448 23.52L62.3008 29.592C62.3008 29.592 55.4608 30.96 57.5968 32.496C59.7328 34.032 68.0368 34.128 69.5008 33.648C70.9648 33.168 81.8848 27.864 81.8848 27.864L81.0208 21.816Z" fill="#A04040"/>
<path d="M69.9837 26.208C69.4557 26.688 68.9038 27.168 68.3278 27.624C67.7518 28.08 67.1997 28.536 66.6237 28.992L66.5757 29.016H66.5037C65.8077 29.112 65.1117 29.184 64.4157 29.304C63.7197 29.424 63.0238 29.52 62.3278 29.616C61.6318 29.712 60.9358 29.856 60.2637 30.024C59.9277 30.096 59.5918 30.192 59.2558 30.312C58.9198 30.408 58.6077 30.576 58.3438 30.792C58.5837 30.504 58.8718 30.288 59.2078 30.144C59.5198 29.976 59.8558 29.856 60.2158 29.736C60.5518 29.616 60.8878 29.52 61.2478 29.424C61.6078 29.328 61.9437 29.256 62.2797 29.184C62.9757 29.04 63.6718 28.92 64.3918 28.824C65.1118 28.728 65.8078 28.632 66.5278 28.584L66.4078 28.632C67.0078 28.2 67.5837 27.792 68.1838 27.384C68.7597 26.976 69.3597 26.592 69.9837 26.208Z" fill="#000001"/>
<path d="M97.368 12.096C97.368 12.096 88.608 11.328 86.616 14.976C84.624 18.624 81.168 14.856 78.504 17.856C75.84 20.856 77.064 29.52 80.496 32.304C83.928 35.088 85.824 28.848 89.736 30.072C93.648 31.296 100.752 31.656 101.736 28.464C102.72 25.272 97.368 12.096 97.368 12.096Z" fill="#87CCDB"/>
<path d="M88.0561 19.032C88.0561 19.032 86.9041 19.752 87.8161 20.184C88.7281 20.616 89.1121 20.376 89.0641 19.608C89.0161 18.84 88.0561 19.032 88.0561 19.032Z" fill="white"/>
<path d="M86.3999 24.864C86.3999 24.864 85.2479 25.584 86.1599 26.016C87.0719 26.448 87.4559 26.208 87.4079 25.44C87.3599 24.672 86.3999 24.864 86.3999 24.864Z" fill="white"/>
<path d="M95.7592 23.4959C95.7592 23.4959 94.6072 24.2159 95.5192 24.6479C96.4312 25.0799 96.8152 24.8399 96.7672 24.0719C96.7192 23.3039 95.7592 23.4959 95.7592 23.4959Z" fill="white"/>
<path d="M78.8139 21.576C78.8139 21.576 77.6619 22.296 78.5739 22.728C79.4859 23.16 79.8699 22.92 79.8219 22.152C79.7739 21.384 78.8139 21.576 78.8139 21.576Z" fill="white"/>
<path d="M94.6538 15.36C94.6538 15.36 93.5018 16.08 94.4138 16.512C95.3258 16.944 95.7098 16.704 95.6618 15.936C95.6138 15.168 94.6538 15.36 94.6538 15.36Z" fill="white"/>
<path d="M80.7358 29.28C80.7358 29.28 79.5838 30 80.4958 30.432C81.4078 30.864 81.7918 30.624 81.7438 29.856C81.6958 29.088 80.7358 29.28 80.7358 29.28Z" fill="white"/>
<path d="M92.3022 27.192C92.3022 27.192 91.1502 27.912 92.0622 28.344C92.9742 28.776 93.3582 28.536 93.3102 27.768C93.2622 27 92.3022 27.192 92.3022 27.192Z" fill="white"/>
</svg>
