<svg width="497" height="774" viewBox="0 0 497 774" fill="none" xmlns="http://www.w3.org/2000/svg">
<g filter="url(#filter0_d_664_7793)">
<path d="M33.5143 336.203L104.163 371.527C110.871 374.882 118.457 376.621 126.161 376.57C133.866 376.518 141.421 374.679 148.072 371.236L197.193 345.802C199.651 344.529 202.443 343.849 205.29 343.831C208.138 343.813 210.941 344.457 213.419 345.699L273.268 375.732C278.886 378.553 285.24 380.024 291.699 379.999C298.158 379.974 304.497 378.454 310.087 375.59L462.202 297.682C464.95 296.273 467.231 294.25 468.819 291.816C470.407 289.382 471.245 286.621 471.25 283.81C471.254 281 470.425 278.237 468.845 275.799C467.265 273.361 464.99 271.332 462.246 269.917L423.203 249.782L204.007 235.955L60.4235 299.091L33.2296 313.32C30.9755 314.502 29.1124 316.188 27.8277 318.209C26.5429 320.23 25.8817 322.515 25.9106 324.834C25.9394 327.153 26.6573 329.425 27.992 331.42C29.3267 333.416 31.2313 335.065 33.5143 336.203Z" fill="white"/>
</g>
<path d="M314.846 350.794L230.169 313.643L224.449 233.986L309.117 271.129L314.846 350.794Z" fill="#FAFAFA"/>
<path d="M378.334 143.227L224.422 233.884L309.117 271.035L463.038 180.378L378.334 143.227Z" fill="#FAFAFA"/>
<path d="M224.378 233.403L223.889 233.813L229.573 312.84L229.644 313.934L230.053 319.541L241.404 324.525L246.412 321.289L301.423 345.416L304.26 352.093L314.722 356.684L315.789 356.511L315.433 351.566L315.362 350.471L309.633 270.83L225.454 233.876L224.378 233.403ZM240.844 323.226L231.059 318.95L230.738 314.438L233.309 315.572L242.445 319.58L240.844 323.226ZM314.677 355.597L305.123 351.424L302.837 346.054L314.33 351.093L314.677 355.597ZM314.277 349.999L313.592 349.699L297.713 342.762L297.517 340.03L286.629 335.258L286.825 337.99L258.083 325.391L257.888 322.659L247.008 317.856L247.204 320.588L230.685 313.344L225.036 234.781L308.601 271.436L314.277 349.999Z" fill="#16110D"/>
<path d="M378.45 145.51L226.397 235.112L310.016 271.728L462.033 182.181L378.45 145.51ZM308.646 264.546L236.192 233.466L378.717 149.463L450.931 181.141L308.646 264.546Z" fill="#9A0000"/>
<path d="M462.975 179.811L308.815 270.625L308.557 270.775L314.276 350.432L314.357 351.534L314.721 356.7L315.175 356.889L325.521 350.794L327.38 343.857L453.893 269.342L459.15 272.082L469.7 265.869L469.3 260.263L469.22 259.168L463.536 180.07L462.975 179.811ZM457.976 270.192L454.942 268.743L456.49 267.83L456.624 268.05L457.976 270.192Z" fill="#16110D"/>
<path d="M255.513 222.954L260.085 220.253L330.325 250.696L325.779 253.373L255.513 222.954Z" fill="#9A0000"/>
<path d="M244.135 229.789L248.707 227.096L318.956 257.531L314.401 260.216L244.135 229.789Z" fill="#9A0000"/>
<path d="M267.45 216.009L272.014 213.308L342.262 243.75L337.708 246.428L267.45 216.009Z" fill="#9A0000"/>
<path d="M279.104 208.906L283.676 206.213L353.915 236.648L349.37 239.333L279.104 208.906Z" fill="#9A0000"/>
<path d="M290.552 201.993L295.116 199.3L365.364 229.734L360.81 232.411L290.552 201.993Z" fill="#9A0000"/>
<path d="M302.481 195.055L307.054 192.354L377.293 222.789L372.748 225.466L302.481 195.055Z" fill="#9A0000"/>
<path d="M314.144 187.953L318.707 185.252L388.955 215.694L384.41 218.371L314.144 187.953Z" fill="#9A0000"/>
<path d="M326.161 181.197L330.733 178.496L400.982 208.93L396.427 211.615L326.161 181.197Z" fill="#9A0000"/>
<path d="M337.823 174.094L342.387 171.393L412.635 201.835L408.09 204.513L337.823 174.094Z" fill="#9A0000"/>
<path d="M350.037 167.133L354.609 164.44L424.849 194.874L420.303 197.552L350.037 167.133Z" fill="#9A0000"/>
<path d="M361.966 160.196L366.538 157.495L436.787 187.929L432.232 190.614L361.966 160.196Z" fill="#9A0000"/>
<path d="M373.628 153.093L378.2 150.392L448.44 180.834L443.894 183.512L373.628 153.093Z" fill="#9A0000"/>
<path d="M309.153 271.586L308.877 271.468L223.96 234.214L224.378 233.427L378.272 142.699L378.548 142.825L463.518 180.094L463.563 180.653L309.153 271.586ZM225.49 233.789L309.109 270.46L461.961 180.44L378.343 143.778L225.49 233.789Z" fill="#16110D"/>
<path d="M450.931 181.141L450.095 180.771L378.725 149.463L378.441 149.337L354.645 163.401L354.547 163.361L347.911 167.298L348.009 167.338L342.796 170.424L342.583 170.33L335.964 174.251L336.178 174.346L330.974 177.401L330.796 177.33L324.16 181.267L324.338 181.338L295.614 198.331L288.969 202.268L236.191 233.466L307.57 264.294L308.548 264.72L308.824 264.838L450.931 181.141ZM241.6 234.687L244.616 230.112L313.592 260.869L308.744 263.72L241.6 234.687ZM295.703 199.449L366.138 229.97L361.584 232.655L291.131 202.15L295.703 199.449ZM331.054 178.543L401.578 209.095L397.024 211.773L326.491 181.236L331.054 178.543ZM334.915 179.078L337.281 174.858L407.841 205.402L402.601 208.497L402.486 208.442V208.387L334.915 179.078ZM342.921 171.535L413.463 202.103L408.908 204.757L338.339 174.204L342.921 171.535ZM346.897 172.117L349.263 167.889L419.752 198.402L414.503 201.497V201.434L346.897 172.117ZM354.77 164.527L425.338 195.11L420.793 197.788L350.197 167.164L354.77 164.527ZM437.169 188.15L432.624 190.827L362.064 160.282L366.636 157.581L437.169 188.15ZM370.826 158.298L373.201 154.069L443.423 184.464L438.264 187.472L370.826 158.298ZM374.029 153.369L378.601 150.668L448.796 181.299L444.455 183.858L374.029 153.369ZM431.583 191.441L426.415 194.481L358.862 165.212L361.237 160.983L431.583 191.441ZM378.032 222.986L373.477 225.663L303.051 195.142L307.614 192.441L378.032 222.986ZM311.822 193.15L314.188 188.921L384.258 219.261L379.09 222.285L311.822 193.15ZM315.024 188.22L319.588 185.52L321.696 186.433V186.488L389.783 215.985L385.335 218.631L315.024 188.22ZM323.146 186L325.485 181.826L395.992 212.347L390.886 215.355L323.146 186ZM372.436 226.222L367.259 229.269L299.866 200.056L302.232 195.827L372.436 226.222ZM251.83 228.403L318.903 257.751L314.633 260.271L245.487 229.427L249.197 227.269L251.83 228.403ZM252.871 227.797L255.05 223.773L325.103 254.097L320.21 256.979L252.871 227.797ZM255.877 223.072L260.45 220.379L330.725 250.814L326.179 253.491L255.877 223.072ZM264.639 221.096L267.015 216.859L336.943 247.136L331.766 250.184L264.639 221.096ZM267.842 216.159L272.414 213.458L342.592 243.805L337.975 246.522L267.842 216.159ZM276.213 213.977L278.579 209.749L348.801 240.152L343.632 243.199L276.213 213.977ZM279.415 209.048L283.987 206.347L286.469 207.426L354.369 236.844L349.859 239.506L279.415 209.048ZM287.919 206.993L290.268 202.796L360.543 233.222L355.41 236.246L287.919 206.993Z" fill="#16110D"/>
<path d="M346.666 190.26L346.292 185.142L374.785 197.804L374.589 202.591L346.666 190.26Z" fill="#FAFAFB"/>
<path d="M400.164 182.11L374.224 197.394L346.292 185.141L372.24 169.865L400.164 182.11Z" fill="#9E0C05"/>
<path d="M391.126 182.622L373.886 192.772L355.339 184.637L372.57 174.479L391.126 182.622Z" fill="#9E0C05"/>
<path d="M372.356 171.527L347.982 185.882L375.745 198.229L400.288 183.771L372.356 171.527ZM373.886 192.788L358.016 185.331L372.596 174.818L390.841 182.504L373.886 192.788Z" fill="#9A0000"/>
<path d="M400.68 181.803L400.119 181.559L372.196 169.314L346.247 184.598L345.731 184.897V185.448L346.105 190.709L374.037 202.977L374.589 203.221L375.105 202.914L401.062 187.795L400.671 182.354V181.803H400.68ZM373.993 201.874L347.181 190.063L346.879 185.897L373.69 197.662L373.993 201.874ZM374.171 196.843L347.359 185.086L372.267 170.409L399.123 182.173L374.171 196.843Z" fill="#16110D"/>
<path d="M391.419 183.016L392.193 182.559L373.085 174.181L372.534 173.937L354.262 184.693L373.921 193.355L389.684 184.071L391.464 183.047L391.419 183.016ZM373.165 175.275L390.067 182.685L387.398 184.26L373.423 178.275L373.165 175.275ZM360.427 186.339L372.881 179.134L386.286 184.882L373.833 192.229L360.427 186.339Z" fill="#16110D"/>
<path d="M306.903 340.227L236.334 309.233L231.619 244.175L302.232 275.169L306.903 340.227ZM237.33 308.627L305.719 338.636L301.2 275.775L232.776 245.766L237.33 308.627Z" fill="#16110D"/>
<path d="M267.052 259.99L265.978 260.05L270.575 324.01L271.649 323.95L267.052 259.99Z" fill="#16110D"/>
<path d="M259.56 300.241C258.587 300.31 257.61 300.158 256.722 299.8L240.861 292.847C240.428 292.684 240.05 292.423 239.767 292.09C239.485 291.757 239.306 291.363 239.251 290.949C239.247 290.532 239.367 290.122 239.6 289.759C239.833 289.397 240.17 289.096 240.577 288.886L242.747 287.61C242.985 287.471 243.275 287.421 243.554 287.469C243.834 287.518 244.081 287.662 244.242 287.87C244.32 287.974 244.374 288.092 244.402 288.215C244.429 288.338 244.429 288.464 244.401 288.587C244.372 288.71 244.317 288.827 244.238 288.931C244.159 289.035 244.057 289.124 243.939 289.193L241.777 290.469C241.457 290.658 241.395 290.807 241.395 290.823C241.395 290.839 241.475 290.988 241.822 291.138L257.683 298.107C258.235 298.317 258.835 298.409 259.435 298.374C260.035 298.34 260.617 298.181 261.134 297.91L263.305 296.634C263.422 296.565 263.554 296.517 263.692 296.493C263.83 296.469 263.972 296.469 264.111 296.494C264.249 296.519 264.38 296.568 264.497 296.638C264.613 296.708 264.713 296.798 264.79 296.902C264.869 297.006 264.924 297.123 264.952 297.245C264.98 297.368 264.981 297.494 264.953 297.617C264.926 297.74 264.872 297.857 264.793 297.961C264.715 298.066 264.614 298.155 264.497 298.225L262.326 299.501C261.491 299.953 260.538 300.207 259.56 300.241Z" fill="#15100C"/>
<path d="M294.546 314.651C293.57 314.723 292.59 314.571 291.7 314.21L275.848 307.257C275.405 307.112 275.019 306.857 274.737 306.522C274.455 306.187 274.289 305.787 274.258 305.37C274.228 304.953 274.336 304.537 274.567 304.173C274.799 303.809 275.145 303.513 275.563 303.32L277.734 302.044C277.851 301.975 277.982 301.927 278.121 301.902C278.259 301.878 278.401 301.879 278.539 301.904C278.678 301.929 278.809 301.978 278.925 302.048C279.042 302.118 279.142 302.207 279.219 302.312C279.376 302.521 279.433 302.776 279.378 303.023C279.323 303.269 279.16 303.486 278.926 303.627L276.755 304.902C276.435 305.091 276.373 305.241 276.373 305.264C276.475 305.404 276.624 305.512 276.8 305.572L292.66 312.525C293.213 312.735 293.813 312.826 294.413 312.792C295.013 312.758 295.595 312.599 296.112 312.328L298.274 311.052C298.391 310.983 298.524 310.934 298.663 310.91C298.802 310.886 298.945 310.886 299.084 310.911C299.222 310.936 299.354 310.985 299.472 311.055C299.589 311.125 299.69 311.215 299.768 311.32C299.847 311.424 299.901 311.541 299.928 311.664C299.956 311.787 299.955 311.914 299.927 312.037C299.899 312.16 299.844 312.277 299.765 312.381C299.685 312.484 299.584 312.574 299.466 312.643L297.304 313.918C296.47 314.365 295.521 314.617 294.546 314.651Z" fill="#15100C"/>
<path d="M230.632 236.601L224.262 233.876L223.675 227.025L230.036 229.742L230.632 236.601Z" fill="#FAFAFA"/>
<path d="M223.675 227.025L229.529 223.639L235.88 226.222L230.036 229.742L223.675 227.025Z" fill="#FAFAFA"/>
<path d="M223.817 228.726L229.671 225.34L236.022 227.93L230.178 231.45L223.817 228.726Z" fill="#9A0000"/>
<path d="M236.254 225.994L229.493 223.238L223.266 226.844L223.88 234.096L230.649 236.994L236.876 233.246L236.254 225.994ZM229.555 224.033L235.079 226.285L230 229.372L224.467 227.01L229.555 224.033ZM230.187 236.026L224.636 233.663L224.111 227.608L229.662 229.97L230.187 236.026Z" fill="#FFA6A6"/>
<path d="M308.673 270.46L302.303 267.743L301.716 260.885L308.077 263.601L308.673 270.46Z" fill="#FAFAFA"/>
<path d="M301.716 260.885L307.57 257.499L313.921 260.09L308.077 263.602L301.716 260.885Z" fill="#FAFAFA"/>
<path d="M301.858 262.586L307.712 259.2L314.063 261.79L308.219 265.31L301.858 262.586Z" fill="#C60000"/>
<path d="M314.295 259.853L307.534 257.105L301.307 260.704L301.93 267.972L308.699 270.861L314.926 267.121L314.295 259.853ZM307.605 257.892L313.121 260.145L308.041 263.231L302.508 260.869L307.605 257.892ZM308.228 269.885L302.677 267.523L302.152 261.467L307.703 263.83L308.228 269.885Z" fill="#FFA6A6"/>
<path d="M379.063 149.471L372.694 146.746L372.107 139.888L378.467 142.612L379.063 149.471Z" fill="#FAFAFA"/>
<path d="M372.107 139.888L377.96 136.502L384.312 139.093L378.467 142.612L372.107 139.888Z" fill="#FAFAFA"/>
<path d="M372.249 141.596L378.102 138.21L384.454 140.801L378.609 144.313L372.249 141.596Z" fill="#9A0000"/>
<path d="M384.685 138.864L377.925 136.108L371.698 139.706L372.329 146.974L379.099 149.872L385.326 146.124L384.685 138.864ZM377.987 136.903L383.511 139.147L378.432 142.211L372.899 139.848L377.987 136.903ZM378.663 148.896L373.112 146.534L372.587 140.47L378.138 142.833L378.663 148.896Z" fill="#FFA6A6"/>
<path d="M325.85 133.407L315.833 138.47L325.708 161.306L335.359 156.424C336.8 155.841 337.637 154.314 337.637 152.235V139.431L325.85 133.407Z" fill="#16110D"/>
<path d="M322.23 160.715L321.438 160.314C318.493 158.81 316.101 154.802 316.101 151.313V138.714L327.54 144.557V157.156C327.549 160.629 325.165 162.219 322.23 160.715Z" fill="#FAFAFA"/>
<path d="M324.346 161.589C323.535 161.571 322.744 161.365 322.051 160.991L321.26 160.582C318.226 159.007 315.762 154.873 315.762 151.313V138.502L316.118 138.321L327.905 144.329V157.133C327.905 159.07 327.166 160.558 325.885 161.212C325.419 161.456 324.888 161.587 324.346 161.589ZM322.407 160.448C322.854 160.734 323.38 160.908 323.929 160.952C324.479 160.996 325.031 160.909 325.53 160.7C326.588 160.156 327.193 158.865 327.193 157.156V144.715L316.465 139.203V151.29C316.465 154.652 318.769 158.566 321.607 160.022L322.407 160.448Z" fill="#16110D"/>
<path d="M327.558 144.534L337.281 139.612L325.85 133.77L316.118 138.691L327.558 144.534Z" fill="#FAFAFA"/>
<path d="M327.202 146.037V144.368L335.377 140.399L325.521 135.36L316.465 139.943V140.628L327.202 146.037Z" fill="#9A0000"/>
<path d="M327.549 144.896L315.762 138.864V138.502L325.841 133.407L337.636 139.431V139.793L327.549 144.896ZM316.821 138.691L327.549 144.203L336.578 139.636L325.841 134.124L316.821 138.691Z" fill="#16110D"/>
<path d="M345.607 73.4597L323.626 62.223C323.403 62.0892 323.149 62.002 322.882 61.9679C322.616 61.9337 322.344 61.9537 322.087 62.0261L317.506 64.4514L323.67 72.6722L325.023 77.7512C325.526 79.625 326.822 81.2566 328.643 82.3104L333.349 84.7121L338.455 91.0824L343.072 88.6178C343.325 88.4952 343.548 88.3279 343.725 88.126C343.903 87.9242 344.032 87.6922 344.104 87.4445L347.849 77.6252C348.293 76.3338 347.173 74.2471 345.607 73.4597Z" fill="#FAFAFA"/>
<path d="M346.159 75.2L324.169 63.9633C323.949 63.8269 323.696 63.738 323.43 63.7038C323.165 63.6696 322.894 63.6911 322.639 63.7665L318.058 66.1917L324.222 74.4677L325.574 79.5466C326.077 81.423 327.372 83.0575 329.195 84.1138L333.892 86.5154L336.712 89.6652L341.159 87.8383L341.32 87.2005C341.573 87.0753 341.794 86.9061 341.972 86.7031C342.149 86.5002 342.278 86.2676 342.351 86.0194L347.315 79.9797C347.769 78.6805 347.724 76.0032 346.159 75.2Z" fill="#9A0000"/>
<path d="M338.366 91.5076L333.109 84.964L328.474 82.6017C326.565 81.5046 325.208 79.7983 324.685 77.8378L323.341 72.8139L317.017 64.3097L322.069 61.6324C322.355 61.5722 322.652 61.5648 322.941 61.6109C323.231 61.657 323.506 61.7554 323.751 61.9001L345.749 73.1525C347.448 74.0187 348.64 76.3023 348.151 77.7276L344.406 87.5547C344.241 88.0993 343.846 88.567 343.303 88.8619L343.223 88.9091L338.366 91.5076ZM318.004 64.5065L324.017 72.6171L325.37 77.696C325.855 79.4866 327.092 81.0464 328.83 82.0584L333.634 84.5467L338.562 90.6808L342.921 88.3185C343.137 88.2175 343.328 88.078 343.481 87.9086C343.634 87.7392 343.746 87.5437 343.81 87.3342L347.528 77.5307C347.92 76.3889 346.852 74.3809 345.447 73.688L323.448 62.4356C323.275 62.3264 323.076 62.2534 322.867 62.222C322.657 62.1906 322.442 62.2017 322.238 62.2544L318.004 64.5065Z" fill="#16110D"/>
<path d="M335.742 90.8776L323.92 84.838C322.098 83.7848 320.802 82.1529 320.299 80.2788L316.67 66.664C316.189 64.8844 317.319 63.8844 318.894 64.6954L340.884 75.9321C342.44 76.7196 343.552 78.8377 343.125 80.1449L339.38 89.9957C338.9 91.3658 337.423 91.7359 335.742 90.8776Z" fill="#9E0C05"/>
<path d="M347.911 77.6411L347.697 75.6252L343.179 77.9875C342.764 77.0386 342.019 76.2307 341.052 75.6804L319.063 64.42C318.753 64.222 318.383 64.1103 318.002 64.0991C317.62 64.0879 317.243 64.1777 316.919 64.357C316.573 64.6583 316.333 65.041 316.225 65.4598C316.118 65.8785 316.149 66.3156 316.314 66.7194L319.952 80.3498C320.483 82.2949 321.836 83.9858 323.733 85.0744L335.555 91.1141C336.121 91.4236 336.767 91.5973 337.432 91.618C337.737 91.622 338.04 91.5711 338.322 91.4684C338.812 91.294 339.216 90.97 339.46 90.555L343.632 88.2635L347.911 77.6411ZM338.055 90.9251C337.695 91.0176 337.316 91.0373 336.947 90.9827C336.577 90.9282 336.226 90.8009 335.92 90.6101L324.097 84.5705C322.364 83.5559 321.131 81.9968 320.646 80.2081L317.008 66.5934C316.878 66.305 316.842 65.9907 316.901 65.6851C316.961 65.3794 317.115 65.0942 317.346 64.861C317.492 64.7651 317.671 64.7152 317.853 64.7193C318.168 64.7325 318.474 64.8165 318.742 64.9634L340.723 76.2001C342.129 76.9166 343.196 78.9009 342.805 80.0427L339.06 89.8699C338.999 90.1038 338.876 90.3215 338.701 90.505C338.526 90.6885 338.305 90.8325 338.055 90.9251Z" fill="#16110D"/>
<path d="M330.325 116.682C329.64 115.847 328.706 115.525 328.199 115.942C327.821 116.259 327.376 116.508 326.891 116.674C326.33 116.863 325.459 116.375 324.987 115.603L324.605 114.981C323.964 113.958 323.964 112.871 324.605 112.477L325.45 111.957C326.686 111.17 327.362 109.776 327.362 107.973V103.839L324.258 102.264L321.998 103.571L322.888 108.816L322.292 109.178C321.046 109.965 320.717 111.729 321.296 113.721L320.717 114.839L324 119.564L327.771 120.958L329.479 119.918C329.902 119.705 330.288 119.44 330.627 119.131C331.205 118.706 331.063 117.556 330.325 116.682Z" fill="#FAFAFA"/>
<path d="M327.807 121.257L323.751 119.769L320.317 114.847L320.922 113.674C320.335 111.54 320.771 109.737 322.087 108.91L322.505 108.65L321.616 103.406L324.24 101.886L327.718 103.658V107.965C327.718 109.879 326.989 111.391 325.654 112.209L324.765 112.737C324.355 112.989 324.284 113.863 324.889 114.832L325.263 115.446C325.672 116.115 326.393 116.493 326.731 116.375C327.177 116.228 327.585 116.003 327.932 115.714C328.051 115.618 328.192 115.545 328.345 115.5C328.498 115.456 328.661 115.44 328.821 115.454C329.184 115.508 329.53 115.629 329.837 115.809C330.144 115.99 330.404 116.225 330.6 116.501C331.49 117.54 331.588 118.808 330.894 119.375C330.517 119.689 330.091 119.954 329.631 120.163L327.807 121.257ZM324.249 119.273L327.745 120.556L329.293 119.619C329.708 119.434 330.094 119.201 330.44 118.926C330.805 118.619 330.725 117.682 330.058 116.871C329.781 116.476 329.34 116.194 328.83 116.084C328.763 116.074 328.695 116.079 328.63 116.097C328.565 116.114 328.506 116.145 328.456 116.186C328.042 116.525 327.559 116.792 327.033 116.973C326.313 117.225 325.254 116.674 324.694 115.761L324.311 115.147C323.573 113.95 323.617 112.721 324.409 112.233L325.298 111.713C326.437 111.013 327.078 109.682 327.078 107.981V104.044L324.258 102.595L322.372 103.689L323.261 108.918L322.487 109.398C321.402 110.076 321.073 111.682 321.598 113.603V113.713L321.046 114.784L324.249 119.273Z" fill="#16110D"/>
<path d="M324.631 117.981C324.071 118.17 323.199 117.682 322.728 116.91L322.345 116.296C321.714 115.265 321.705 114.178 322.345 113.792L323.235 113.265C324.471 112.477 325.156 111.091 325.156 109.28V105.146L322.043 103.571V107.705C322.079 108.134 321.996 108.563 321.802 108.957C321.609 109.351 321.309 109.697 320.931 109.965L320.041 110.493C318.333 111.548 318.342 114.493 320.041 117.288L320.424 117.91C321.181 119.203 322.318 120.291 323.715 121.06C324.133 121.317 324.61 121.488 325.112 121.56C325.614 121.632 326.127 121.604 326.615 121.478C327.273 121.255 327.877 120.924 328.394 120.501C328.937 120.052 328.795 118.926 328.056 118.036C327.371 117.194 326.437 116.871 325.93 117.296C325.549 117.594 325.108 117.826 324.631 117.981Z" fill="#FAFAFA"/>
<path d="M325.77 121.887C324.983 121.865 324.216 121.661 323.546 121.296C322.1 120.499 320.919 119.377 320.121 118.044L319.747 117.422C317.968 114.469 317.968 111.375 319.827 110.217L320.672 109.697C321.003 109.456 321.263 109.147 321.43 108.797C321.598 108.448 321.667 108.068 321.633 107.689V103.02L325.449 104.973V109.28C325.449 111.194 324.711 112.698 323.377 113.524L322.487 114.044C322.078 114.296 322.007 115.178 322.603 116.147L322.985 116.761C323.395 117.43 324.115 117.816 324.453 117.69C324.897 117.538 325.304 117.314 325.654 117.028C325.773 116.932 325.914 116.859 326.068 116.815C326.221 116.77 326.383 116.754 326.544 116.769C326.906 116.825 327.251 116.948 327.557 117.128C327.863 117.308 328.124 117.542 328.323 117.816C329.212 118.855 329.301 120.123 328.616 120.69C328.065 121.142 327.422 121.497 326.721 121.737C326.417 121.838 326.095 121.889 325.77 121.887ZM322.336 104.099V107.689C322.374 108.169 322.279 108.649 322.059 109.089C321.839 109.528 321.5 109.913 321.073 110.209L320.183 110.729C318.635 111.682 318.689 114.493 320.317 117.123L320.69 117.745C321.429 118.977 322.521 120.014 323.857 120.753C324.23 120.985 324.657 121.14 325.106 121.208C325.555 121.277 326.016 121.255 326.455 121.147C327.071 120.94 327.636 120.63 328.118 120.233C328.483 119.926 328.403 118.981 327.736 118.17C327.6 117.974 327.421 117.803 327.211 117.668C327 117.533 326.761 117.436 326.508 117.383C326.442 117.373 326.374 117.376 326.309 117.392C326.244 117.408 326.185 117.438 326.134 117.477C325.721 117.817 325.238 118.085 324.711 118.265C323.991 118.509 322.932 117.966 322.372 117.052L321.989 116.438C321.251 115.241 321.295 114.013 322.087 113.524L322.976 113.005C324.115 112.296 324.756 110.973 324.756 109.272V105.335L322.336 104.099Z" fill="#16110D"/>
<path d="M330.529 116.501C330.335 116.232 330.081 116 329.783 115.82C329.485 115.64 329.148 115.515 328.794 115.454C328.633 115.439 328.47 115.455 328.316 115.501C328.163 115.547 328.022 115.623 327.905 115.721C327.555 116.007 327.147 116.231 326.704 116.383C326.366 116.493 325.645 116.115 325.236 115.454L324.853 114.84C324.257 113.863 324.329 112.989 324.738 112.737L325.583 112.217C326.917 111.391 327.656 109.855 327.656 107.973V103.666L324.177 101.886L321.509 103.406L322.398 108.658L321.989 108.91C320.673 109.698 320.21 111.54 320.824 113.674L320.21 114.847L323.653 119.769L327.709 121.265L329.541 120.155C330 119.942 330.424 119.677 330.805 119.367C331.516 118.808 331.383 117.556 330.529 116.501ZM324.177 102.595L326.926 103.997V105.776L325.023 106.823L322.354 103.997V103.689L324.177 102.595Z" fill="#16110D"/>
<path d="M324.551 117.981C323.991 118.17 323.119 117.682 322.638 116.91L322.265 116.296C321.624 115.265 321.624 114.178 322.265 113.792L323.154 113.265C324.391 112.477 325.067 111.091 325.067 109.28V105.146L321.953 103.571V107.705C321.992 108.134 321.91 108.564 321.716 108.958C321.522 109.352 321.222 109.698 320.842 109.965L319.952 110.493C318.244 111.548 318.253 114.493 319.952 117.288L320.326 117.91C321.086 119.204 322.226 120.292 323.626 121.06C324.043 121.317 324.521 121.488 325.022 121.56C325.524 121.632 326.038 121.604 326.526 121.478C327.182 121.253 327.786 120.922 328.305 120.501C328.848 120.052 328.705 118.926 327.967 118.036C327.282 117.194 326.348 116.871 325.841 117.296C325.461 117.591 325.024 117.823 324.551 117.981Z" fill="#FAFAFA"/>
<path d="M325.69 121.887C324.903 121.865 324.136 121.661 323.466 121.296C322.018 120.501 320.836 119.378 320.041 118.044L319.658 117.422C317.879 114.469 317.879 111.375 319.747 110.217L320.637 109.697C320.968 109.456 321.227 109.147 321.395 108.797C321.562 108.448 321.631 108.068 321.598 107.689V103.02L325.414 104.973V109.28C325.414 111.194 324.675 112.705 323.341 113.524L322.452 114.044C322.042 114.296 321.971 115.178 322.567 116.147L322.95 116.761C323.359 117.43 324.08 117.816 324.418 117.69C324.861 117.538 325.268 117.314 325.618 117.028C325.738 116.933 325.879 116.86 326.032 116.815C326.185 116.77 326.347 116.755 326.508 116.769C326.87 116.825 327.215 116.948 327.521 117.128C327.827 117.308 328.088 117.542 328.287 117.816C329.177 118.855 329.266 120.123 328.581 120.69C328.029 121.142 327.386 121.497 326.686 121.737C326.367 121.842 326.029 121.892 325.69 121.887ZM322.256 104.099V107.689C322.294 108.169 322.199 108.649 321.979 109.089C321.759 109.528 321.42 109.913 320.993 110.209L320.148 110.729C318.6 111.682 318.653 114.493 320.281 117.123L320.655 117.745C321.393 118.977 322.485 120.014 323.821 120.753C324.195 120.985 324.621 121.14 325.07 121.208C325.519 121.277 325.98 121.255 326.419 121.147C327.034 120.939 327.599 120.629 328.083 120.233C328.447 119.926 328.367 118.981 327.7 118.17C327.564 117.974 327.386 117.803 327.175 117.668C326.964 117.533 326.726 117.436 326.472 117.383C326.406 117.373 326.338 117.376 326.273 117.392C326.209 117.408 326.149 117.438 326.099 117.477C325.685 117.817 325.202 118.085 324.675 118.265C323.955 118.509 322.896 117.966 322.336 117.052L321.953 116.438C321.215 115.241 321.26 114.013 322.051 113.524L322.896 113.005C324.044 112.296 324.675 110.973 324.675 109.272V105.335L322.256 104.099Z" fill="#16110D"/>
<path d="M323.439 84.3813L315.291 88.5075L323.297 106.618L331.01 102.721C332.184 102.248 332.851 101.012 332.851 99.3426V89.2083L323.439 84.3813Z" fill="#16110D"/>
<path d="M320.575 106.091L319.952 105.745C317.63 104.556 315.745 101.359 315.745 98.6105V88.6416L324.8 93.2717V103.264C324.791 106.012 322.906 107.32 320.575 106.091Z" fill="#FAFAFA"/>
<path d="M322.247 106.847C321.593 106.828 320.956 106.66 320.397 106.359L319.774 106.036C317.346 104.8 315.38 101.485 315.38 98.634V88.0981L325.165 93.0905V103.264C325.165 104.839 324.569 106.028 323.528 106.556C323.139 106.753 322.696 106.854 322.247 106.847ZM316.083 89.2084V98.6576C316.083 101.303 317.862 104.382 320.121 105.524L320.753 105.839C321.096 106.061 321.5 106.197 321.923 106.231C322.346 106.266 322.772 106.198 323.155 106.036C323.973 105.626 324.436 104.619 324.436 103.288V93.4527L316.083 89.2084Z" fill="#16110D"/>
<path d="M315.264 71.9794H314.33L314.17 0H315.113L315.264 71.9794Z" fill="#16110D"/>
<path d="M324.871 67.1604C321.98 65.6801 319.356 65.5068 317.399 66.373C317.067 66.5465 316.747 66.7358 316.438 66.94L314.277 68.2235L314.917 68.7196C314.283 69.9735 313.978 71.3386 314.028 72.7118C314.028 78.8538 318.902 86.3266 324.916 89.3976C330.929 92.4686 335.804 89.9803 335.804 83.8383C335.804 77.6963 330.885 70.2157 324.871 67.1604Z" fill="#FAFAFA"/>
<path d="M319.428 86.4758L333.927 78.8535C332.148 74.3336 328.465 69.9948 324.24 67.8294C321.34 66.349 318.716 66.1679 316.768 67.042C316.768 67.042 316.092 67.4042 315.807 67.6089L313.645 68.9003L314.286 69.3885C313.653 70.643 313.349 72.0077 313.396 73.3808C313.352 77.7747 315.834 82.8143 319.428 86.4758Z" fill="#670000"/>
<path d="M329.738 91.0351C327.952 90.9736 326.214 90.5043 324.694 89.6728C318.6 86.5231 313.637 78.948 313.637 72.7115C313.602 71.3619 313.887 70.0208 314.473 68.7743L313.69 68.168L316.234 66.664C316.546 66.4516 316.873 66.257 317.213 66.0813L317.373 65.9947C319.499 65.1049 322.203 65.3962 325.023 66.8372C331.125 69.987 336.089 77.5621 336.089 83.7986C336.089 86.8853 334.888 89.2004 332.718 90.3028C331.816 90.7779 330.787 91.0307 329.738 91.0351ZM314.837 68.2546L315.336 68.6405L315.22 68.8531C314.596 70.0627 314.292 71.3822 314.33 72.7115C314.33 78.7432 319.134 86.0979 325.005 89.1295C327.798 90.5547 330.405 90.7989 332.353 89.8067C334.301 88.8145 335.36 86.6963 335.36 83.8379C335.36 77.7983 330.556 70.4515 324.685 67.4199C322.016 66.0498 319.481 65.7821 317.568 66.6325L317.435 66.6955C317.166 66.8355 316.907 66.9907 316.661 67.1601L314.837 68.2546Z" fill="#16110D"/>
<path d="M332.931 85.5469C332.931 91.6889 328.056 94.2087 322.042 91.1062C316.029 88.0037 311.154 80.5467 311.154 74.4205C311.154 68.2942 316.029 65.7587 322.042 68.8533C328.056 71.9479 332.931 79.3971 332.931 85.5469Z" fill="#FAFAFB"/>
<path d="M326.9 92.736C325.116 92.6781 323.38 92.2085 321.865 91.3737C315.763 88.2633 310.808 80.6488 310.808 74.4202C310.808 71.3335 312 69.0184 314.17 67.9082C316.341 66.7979 319.196 67.042 322.176 68.5853C328.27 71.7351 333.233 79.3102 333.233 85.5467C333.233 88.6334 332.041 90.9406 329.871 92.0509C328.965 92.5046 327.941 92.7408 326.9 92.736ZM317.186 67.8451C316.252 67.837 315.331 68.0461 314.517 68.4515C312.578 69.4437 311.51 71.5618 311.51 74.4202C311.51 80.452 316.314 87.8066 322.185 90.8382C324.978 92.2635 327.585 92.5076 329.533 91.5154C331.481 90.5233 332.54 88.3657 332.54 85.5467C332.54 79.5071 327.736 72.1603 321.865 69.1287C320.458 68.3481 318.845 67.9058 317.186 67.8451Z" fill="#16110D"/>
<path d="M324.329 86.1377C323.456 86.1118 322.607 85.8837 321.865 85.4762C320.329 84.5907 319.05 83.3982 318.131 81.9949C317.211 80.5916 316.677 79.0167 316.572 77.3971C316.572 75.8853 317.168 74.7513 318.244 74.2001C319.321 73.6489 320.735 73.7592 322.212 74.5151C323.76 75.3993 325.051 76.5949 325.978 78.0043C326.906 79.4138 327.444 80.9972 327.549 82.6257C327.549 84.1376 326.953 85.2715 325.877 85.8227C325.403 86.0523 324.868 86.1614 324.329 86.1377ZM319.756 74.4442C319.352 74.4384 318.952 74.528 318.6 74.7041C318.13 75.0092 317.761 75.4194 317.529 75.8927C317.298 76.366 317.213 76.8852 317.283 77.3971C317.377 78.915 317.874 80.392 318.733 81.7082C319.593 83.0244 320.79 84.1426 322.229 84.9722C323.475 85.6101 324.64 85.7597 325.485 85.2872C326.33 84.8147 326.811 83.9092 326.811 82.6257C326.717 81.1098 326.221 79.6349 325.363 78.3202C324.505 77.0056 323.31 75.8882 321.874 75.0584C321.241 74.6918 320.511 74.4799 319.756 74.4442Z" fill="#16110D"/>
<path d="M326.037 82.5783C326.037 84.8304 324.257 85.7281 322.042 84.6178C320.88 83.9481 319.912 83.0449 319.218 81.9818C318.524 80.9186 318.123 79.7255 318.048 78.4994C318.048 76.2395 319.827 75.3497 322.042 76.4521C323.202 77.1268 324.167 78.0322 324.86 79.0959C325.554 80.1596 325.957 81.3522 326.037 82.5783Z" fill="#670000"/>
<path d="M330.369 91.9173L329.826 91.2401L332.095 89.8306C333.785 88.7754 333.989 84.9091 333.927 83.5311L333.776 1.97656H334.71L334.861 83.5154C334.861 83.728 335.083 89.0274 332.637 90.5314L330.369 91.9173Z" fill="#16110D"/>
<path d="M329.088 82.3892L307.107 71.1525C306.886 71.0142 306.632 70.9243 306.364 70.8901C306.097 70.8558 305.824 70.8783 305.568 70.9556L300.987 73.3731L307.151 81.6569L308.504 86.7358C309.01 88.6086 310.305 90.2395 312.124 91.2951L316.821 93.6967L321.936 100.059L326.553 97.6024C326.807 97.4783 327.029 97.3094 327.207 97.1063C327.384 96.9032 327.513 96.67 327.585 96.4213L331.33 86.6019C331.774 85.2712 330.627 83.1845 329.088 82.3892Z" fill="#FAFAFA"/>
<path d="M329.159 84.2082L307.178 72.9715C306.955 72.8377 306.7 72.7505 306.434 72.7164C306.167 72.6823 305.895 72.7022 305.639 72.7747L301.058 75.1999L307.222 83.4759L308.583 88.5548C309.082 90.4303 310.375 92.0648 312.195 93.122L316.901 95.4843L320.921 97.4292L325.529 94.9724C325.785 94.8478 326.008 94.6778 326.185 94.4732C326.363 94.2686 326.491 94.0338 326.561 93.7834L330.911 88.3816C331.129 87.6107 331.078 86.7994 330.765 86.0546C330.453 85.3097 329.893 84.666 329.159 84.2082Z" fill="#9A0000"/>
<path d="M321.847 100.477L316.581 93.9332L311.955 91.5709C310.056 90.4831 308.699 88.7923 308.166 86.8463L306.822 81.8146L300.498 73.3103L305.55 70.633H305.595C305.88 70.5716 306.177 70.563 306.466 70.6078C306.755 70.6525 307.031 70.7495 307.276 70.8929L329.266 82.1217C330.965 82.9879 332.157 85.2714 331.668 86.6967L327.958 96.516C327.793 97.0605 327.398 97.5283 326.855 97.8231L326.775 97.8704L321.847 100.477ZM301.485 73.4599L307.498 81.5705L308.851 86.6494C309.338 88.4371 310.571 89.9955 312.302 91.0118L317.115 93.5001L322.043 99.6263L326.402 97.3034C326.619 97.2015 326.811 97.0608 326.964 96.89C327.117 96.7192 327.228 96.5221 327.291 96.3112L331.036 86.4841C331.428 85.3423 330.351 83.3343 328.955 82.6414L306.965 71.4047C306.792 71.2955 306.593 71.2225 306.383 71.1911C306.174 71.1597 305.959 71.1708 305.755 71.2236L301.485 73.4599Z" fill="#16110D"/>
<path d="M319.222 99.8465L307.4 93.8068C305.578 92.7506 304.282 91.1161 303.78 89.2397L300.141 75.6329C299.67 73.8454 300.791 72.8532 302.374 73.6564L324.4 84.8931C325.956 85.6805 327.068 87.8066 326.641 89.1058L322.896 98.9252C322.38 100.327 320.904 100.705 319.222 99.8465Z" fill="#9E0C05"/>
<path d="M330.306 114.894L331.285 113.768L329.043 112.831L328.652 112.697C328.167 112.582 327.659 112.56 327.163 112.633C326.667 112.707 326.195 112.874 325.779 113.123C324.437 113.901 323.322 114.948 322.525 116.18C321.727 117.411 321.269 118.792 321.188 120.21V141.392L323.777 142.628L324.996 121.367L326.063 117.005L327.691 115.524C327.999 115.84 328.152 116.251 328.118 116.666V137.667L330.707 138.691L331.392 128.564L331.908 116.107L330.395 115.501C330.382 115.297 330.353 115.094 330.306 114.894Z" fill="#FAFAFA"/>
<path d="M330.84 115.902L331.819 114.776L329.577 113.847L329.186 113.713C328.701 113.593 328.192 113.569 327.695 113.643C327.199 113.716 326.727 113.885 326.312 114.138C324.972 114.918 323.859 115.965 323.061 117.197C322.264 118.428 321.805 119.808 321.722 121.225V122.493L324.498 123.737L325.53 122.383L326.597 118.02L328.225 116.532C328.527 116.853 328.68 117.265 328.652 117.682L328.839 118.776L331.436 119.8L331.934 129.58L332.441 117.123L330.938 116.516C330.923 116.31 330.89 116.105 330.84 115.902Z" fill="#9A0000"/>
<path d="M324.071 143.101L320.797 141.447V120.186C320.891 118.721 321.37 117.295 322.198 116.023C323.026 114.751 324.18 113.669 325.565 112.863C326.024 112.587 326.545 112.404 327.092 112.327C327.64 112.249 328.199 112.279 328.732 112.414L329.186 112.564L331.783 113.635L330.627 114.966C330.627 115.06 330.627 115.147 330.627 115.241L332.148 115.855L331.712 128.58L331.107 138.73L330.698 139.045L327.736 137.872V116.627C327.742 116.403 327.697 116.181 327.602 115.974L326.348 117.115L325.29 121.399L324.071 143.101ZM321.5 141.179L323.422 142.093L324.605 121.328L325.699 116.824L327.665 115.044L327.914 115.281C328.274 115.661 328.459 116.147 328.43 116.643V137.439L330.351 138.226L331.009 128.549L331.508 116.304L330.013 115.706V115.501C330.023 115.359 330.023 115.217 330.013 115.076V114.84L330.805 113.926L328.892 113.139L328.572 113.036C328.135 112.933 327.678 112.916 327.232 112.985C326.787 113.055 326.364 113.209 325.992 113.438C324.7 114.18 323.623 115.181 322.85 116.36C322.077 117.54 321.63 118.864 321.545 120.226V141.179H321.5Z" fill="#16110D"/>
<path d="M331.774 113.619C331.198 113.376 330.559 113.275 329.923 113.326C329.288 113.378 328.68 113.579 328.163 113.91C326.776 114.715 325.622 115.797 324.794 117.069C323.966 118.341 323.486 119.767 323.395 121.233V142.234C323.395 142.307 323.417 142.378 323.458 142.441C323.499 142.504 323.558 142.557 323.629 142.593C323.7 142.63 323.78 142.649 323.863 142.65C323.945 142.65 324.026 142.632 324.097 142.596L326.375 141.431V120.272C326.365 119.692 326.493 119.117 326.749 118.583C327.004 118.049 327.383 117.568 327.86 117.17C328.616 116.556 329.355 116.383 329.817 116.587C330 116.709 330.143 116.872 330.232 117.058C330.321 117.245 330.353 117.449 330.324 117.65V138.856L330.698 139.006L333.304 137.667V116.493C333.36 115.937 333.247 115.377 332.979 114.872C332.71 114.367 332.294 113.935 331.774 113.619Z" fill="#16110D"/>
<path d="M330.627 116.517C330.427 116.245 330.166 116.012 329.86 115.833C329.554 115.654 329.209 115.533 328.848 115.477C328.687 115.461 328.524 115.475 328.371 115.52C328.217 115.565 328.076 115.639 327.958 115.737C327.61 116.024 327.202 116.249 326.757 116.399C326.716 116.405 326.674 116.405 326.633 116.399H326.428L326.339 116.556C325.908 117.675 325.68 118.847 325.663 120.029V120.47L327.807 121.257L329.586 120.147C330.048 119.936 330.476 119.671 330.858 119.359C331.596 118.824 331.516 117.556 330.627 116.517Z" fill="#16110D"/>
<path d="M326.49 117.099C326.212 118.065 326.054 119.055 326.019 120.052V121.58C326.229 121.565 326.435 121.525 326.633 121.461C327.29 121.235 327.894 120.901 328.412 120.477C328.955 120.028 328.812 118.902 328.074 118.013C327.907 117.763 327.677 117.551 327.403 117.392C327.128 117.234 326.816 117.134 326.49 117.099Z" fill="#FAFAFA"/>
<path d="M325.672 121.926V120.052C325.704 119.024 325.865 118.002 326.152 117.005L326.223 116.784H326.49C326.871 116.822 327.237 116.936 327.561 117.117C327.884 117.299 328.157 117.543 328.358 117.831C329.248 118.871 329.337 120.139 328.643 120.706C328.096 121.159 327.456 121.514 326.757 121.753C326.531 121.825 326.294 121.87 326.054 121.887L325.672 121.926ZM326.748 117.446C326.534 118.302 326.409 119.175 326.375 120.052V121.21L326.499 121.17C327.117 120.963 327.682 120.65 328.163 120.249C328.536 119.95 328.447 119.005 327.789 118.194C327.534 117.858 327.172 117.597 326.748 117.446Z" fill="#16110D"/>
<path d="M307.302 88.106C307.076 87.9399 306.797 87.8392 306.504 87.8175C306.211 87.7957 305.917 87.8539 305.662 87.9842C305.408 88.1145 305.204 88.3107 305.079 88.5464C304.954 88.7822 304.913 89.0461 304.963 89.3029C304.994 89.9161 305.192 90.5137 305.539 91.0454C305.885 91.577 306.371 92.0272 306.955 92.3581C307.253 92.5199 307.594 92.6095 307.943 92.618C308.171 92.6208 308.395 92.5692 308.592 92.4684C308.833 92.3275 309.026 92.1316 309.151 91.9015C309.277 91.6714 309.329 91.4157 309.304 91.1612C309.271 90.5474 309.071 89.9496 308.723 89.418C308.375 88.8864 307.888 88.4365 307.302 88.106ZM306.021 88.5312C306.11 88.4856 306.212 88.4637 306.315 88.4682C306.542 88.4761 306.762 88.5358 306.955 88.6414C307.215 88.7855 307.449 88.9634 307.649 89.169L306.066 90.5785C305.82 90.1876 305.682 89.7502 305.666 89.3029C305.644 89.158 305.666 89.0107 305.728 88.8754C305.791 88.7401 305.892 88.6215 306.021 88.5312ZM308.245 91.9329C308.09 91.9856 307.923 92.0031 307.758 91.9838C307.593 91.9646 307.437 91.9092 307.302 91.8227C306.959 91.6398 306.658 91.4021 306.413 91.1219L308.032 89.673C308.352 90.1198 308.536 90.6326 308.566 91.1612C308.589 91.3033 308.573 91.4484 308.517 91.5832C308.461 91.718 308.367 91.8383 308.245 91.9329Z" fill="#16110D"/>
<path d="M319.952 94.5553C319.724 94.3928 319.445 94.2955 319.153 94.2761C318.86 94.2566 318.568 94.3161 318.315 94.4465C318.062 94.577 317.859 94.7723 317.734 95.0068C317.608 95.2413 317.566 95.5039 317.613 95.7601C317.644 96.3733 317.842 96.9709 318.189 97.5026C318.535 98.0342 319.021 98.4844 319.605 98.8153C319.903 98.977 320.244 99.0667 320.593 99.0752C320.82 99.078 321.045 99.0263 321.242 98.9255C321.483 98.7846 321.676 98.5888 321.801 98.3587C321.926 98.1286 321.979 97.8728 321.954 97.6184C321.92 97.0037 321.72 96.405 321.372 95.8723C321.024 95.3395 320.537 94.888 319.952 94.5553ZM318.671 94.9884C318.76 94.9428 318.862 94.9209 318.965 94.9254C319.192 94.9322 319.413 94.992 319.605 95.0986C319.869 95.2378 320.104 95.4163 320.299 95.6262L318.716 97.0357C318.471 96.6443 318.334 96.2072 318.315 95.7601C318.291 95.6165 318.31 95.4698 318.369 95.3345C318.428 95.1992 318.526 95.0799 318.653 94.9884H318.671ZM320.886 98.3901C320.738 98.434 320.581 98.447 320.427 98.4278C320.272 98.4087 320.125 98.358 319.997 98.2798C319.652 98.0992 319.35 97.8613 319.107 97.579L320.726 96.1302C321.045 96.577 321.226 97.0902 321.251 97.6184C321.274 97.7682 321.247 97.9207 321.175 98.0575C321.102 98.1944 320.986 98.3098 320.842 98.3901H320.886Z" fill="#16110D"/>
<path d="M331.33 86.6021L331.107 84.5784L326.66 86.9013C326.245 85.9654 325.507 85.169 324.551 84.6256L302.57 73.3889C302.261 73.19 301.891 73.0776 301.509 73.0664C301.127 73.0551 300.75 73.1455 300.426 73.3259C300.079 73.6261 299.837 74.0089 299.73 74.428C299.622 74.8471 299.654 75.2848 299.822 75.6882L303.46 89.2951C303.98 91.255 305.334 92.9617 307.241 94.0591L319.063 100.114C319.629 100.422 320.276 100.593 320.94 100.611C321.244 100.613 321.545 100.565 321.829 100.469C322.344 100.281 322.764 99.9337 323.012 99.4924L327.078 97.2561L331.33 86.6021ZM326.268 89.0116L325.29 91.5708L322.203 89.9959L325.663 86.5312C326.223 87.2564 326.44 88.1466 326.268 89.0116ZM305.648 81.531L309.509 77.6647L312.498 79.1923L308.646 83.0665L305.648 81.531ZM317.782 81.8932L320.78 83.4681L316.928 87.3344L313.921 85.7989L317.782 81.8932ZM300.827 73.822C301.041 73.7182 301.286 73.6725 301.529 73.6907C301.773 73.7089 302.005 73.7902 302.197 73.9244L304.225 74.9638L301.165 78.1136L300.489 75.578C300.355 75.2864 300.316 74.9677 300.376 74.6575C300.435 74.3473 300.592 74.058 300.827 73.822ZM321.536 99.894C321.174 99.9849 320.793 100.003 320.423 99.9472C320.052 99.8913 319.7 99.7629 319.392 99.5711L307.579 93.5315C305.852 92.5267 304.617 90.9833 304.118 89.2085L301.743 80.2947L325.058 92.2086L322.523 98.8782C322.457 99.1028 322.333 99.311 322.162 99.4871C321.991 99.6631 321.777 99.8022 321.536 99.894Z" fill="#16110D"/>
<path d="M324.934 99.1932L324.649 98.6263C325.538 98.2955 326.926 97.6026 327.193 97.1301C327.593 96.4057 329.372 91.7362 329.39 91.689L330.057 91.8937C329.986 92.0827 328.278 96.6183 327.825 97.4057C327.371 98.1932 325.183 99.0987 324.934 99.1932Z" fill="#FAFAFA"/>
<path d="M329.942 119.241L330.44 119.698C330.678 119.589 330.89 119.439 331.063 119.257C331.756 118.682 331.632 117.422 330.769 116.375C330.574 116.107 330.32 115.877 330.022 115.698C329.724 115.52 329.388 115.396 329.034 115.335C328.874 115.32 328.711 115.335 328.558 115.38C328.404 115.425 328.264 115.498 328.145 115.595C327.85 115.837 327.51 116.031 327.14 116.17L327.184 116.847C327.709 116.665 328.192 116.398 328.607 116.06C328.658 116.021 328.718 115.992 328.782 115.974C328.846 115.957 328.914 115.951 328.981 115.958C329.495 116.065 329.939 116.348 330.217 116.745C330.876 117.532 330.965 118.493 330.591 118.8C330.416 118.99 330.194 119.141 329.942 119.241Z" fill="#FAFAFA"/>
<path d="M327.727 147.541V146.872L337.103 142.195V142.864L327.727 147.541Z" fill="#FAFAFA"/>
<path d="M324.151 156.849C324.151 158.156 323.11 158.691 321.829 158.03C321.153 157.64 320.59 157.115 320.187 156.497C319.783 155.878 319.55 155.184 319.507 154.471C319.507 153.164 320.548 152.636 321.829 153.29C322.505 153.679 323.068 154.205 323.472 154.823C323.875 155.442 324.108 156.136 324.151 156.849Z" fill="#FFA6A6"/>
<path d="M308.406 261.278L307.232 261.16L321.073 156.943L230.169 227.08L229.386 226.301L322.594 154.384L308.406 261.278Z" fill="#16110D"/>
<path d="M456.126 174.991L332.539 151.951L378.173 139.392L378.52 140.384L337.209 151.754L456.366 173.976L456.126 174.991Z" fill="#16110D"/>
<path d="M148.961 348.652L56.0375 333.431L25.917 258.192L118.84 273.421L148.961 348.652Z" fill="#FAFAFA"/>
<path d="M145.892 133.635L25.8638 258.097L118.814 273.326L238.842 148.856L145.892 133.635Z" fill="#FAFAFA"/>
<path d="M25.677 257.648L25.3301 258.16L55.2193 332.809L55.6374 333.848L57.7545 339.14L70.2083 341.179L74.0246 336.856L134.39 346.747L139.185 352.479L150.669 354.361L151.639 353.936L149.771 349.266L149.361 348.235L119.241 272.996L26.8601 257.837L25.677 257.648ZM69.2654 340.053L58.5907 338.305L56.8827 334.045L59.7116 334.51L69.7369 336.156L69.2654 340.053ZM150.26 353.33L139.807 351.613L135.947 347.007L148.561 349.062L150.26 353.33ZM148.143 348.03L147.395 347.912L130.013 345.062L128.982 342.479L117.035 340.526L118.067 343.109L86.5229 337.935L85.491 335.352L73.5442 333.4L74.5761 335.982L56.4469 333.014L26.7356 258.814L118.44 273.838L148.143 348.03Z" fill="#16110D"/>
<path d="M146.702 135.801L28.1768 258.798L119.926 273.759L238.433 150.833L146.702 135.801ZM116.35 267.168L37.0723 254.845L148.187 139.541L227.438 152.518L116.35 267.168Z" fill="#9A0000"/>
<path d="M238.611 148.329L118.387 273.004L118.191 273.208L148.312 348.448L148.721 349.479L150.678 354.361L151.167 354.44L159.236 346.07L158.88 338.983L257.541 236.64L263.447 238.002L271.676 229.474L269.559 224.175L269.15 223.143L239.234 148.439L238.611 148.329ZM261.74 236.475L258.368 235.797L259.578 234.537L259.774 234.719L261.74 236.475Z" fill="#16110D"/>
<path d="M52.3906 240.057L55.9489 236.356L132.922 248.625L129.373 252.302L52.3906 240.057Z" fill="#9A0000"/>
<path d="M43.5659 249.388L47.1242 245.688L124.098 257.956L120.548 261.633L43.5659 249.388Z" fill="#9A0000"/>
<path d="M61.7222 230.49L65.2893 226.789L142.254 239.057L138.714 242.735L61.7222 230.49Z" fill="#9A0000"/>
<path d="M70.7422 220.836L74.3004 217.135L151.274 229.403L147.734 233.08L70.7422 220.836Z" fill="#9A0000"/>
<path d="M79.6108 211.418L83.178 207.717L160.152 219.985L156.602 223.663L79.6108 211.418Z" fill="#9A0000"/>
<path d="M88.9512 201.843L92.5094 198.142L169.483 210.41L165.934 214.096L88.9512 201.843Z" fill="#9A0000"/>
<path d="M97.9717 192.197L101.53 188.496L178.503 200.764L174.954 204.442L97.9717 192.197Z" fill="#9A0000"/>
<path d="M107.445 182.787L111.004 179.078L187.977 191.346L184.428 195.032L107.445 182.787Z" fill="#9A0000"/>
<path d="M116.465 173.133L120.024 169.432L196.997 181.7L193.448 185.378L116.465 173.133Z" fill="#9A0000"/>
<path d="M126.064 163.479L129.622 159.778L206.596 172.047L203.046 175.724L126.064 163.479Z" fill="#9A0000"/>
<path d="M135.396 153.912L138.954 150.211L215.927 162.479L212.378 166.156L135.396 153.912Z" fill="#9A0000"/>
<path d="M144.416 144.266L147.974 140.557L224.947 152.825L221.398 156.511L144.416 144.266Z" fill="#9A0000"/>
<path d="M119.018 273.846L118.716 273.799L25.5078 258.507L25.6679 257.625L145.669 133.092L145.972 133.14L239.224 148.416L239.438 148.943L119.018 273.846ZM26.8688 257.783L118.6 272.807L237.801 149.18L146.096 134.147L26.8688 257.783Z" fill="#16110D"/>
<path d="M227.438 152.518L226.548 152.369L148.223 139.541L147.911 139.486L129.391 158.771H129.284L124.116 164.157H124.222L120.157 168.385H119.926L114.757 173.771H114.989L110.906 177.976H110.719L105.568 183.331H105.755L83.3293 206.654L78.1432 212.048H78.1877L37.0723 254.845L115.247 267.216L116.323 267.389L116.626 267.437L227.438 152.518ZM42.6409 254.719L44.1265 249.593L119.979 262.484L116.243 266.381L42.6409 254.719ZM83.7741 207.686L160.952 219.994L157.394 223.671L80.2159 211.395L83.7741 207.686ZM111.35 179.016L188.618 191.331L185.059 195.008L107.783 182.716L111.35 179.016ZM115.22 178.598L116.19 173.968L193.501 186.268L189.409 190.512H189.285V190.449L115.22 178.598ZM120.557 169.409L197.86 181.732L194.302 185.409L116.99 173.118L120.557 169.409ZM124.56 169.007L125.539 164.361L202.753 176.614L198.661 180.866V180.795L124.56 169.007ZM129.782 159.802L207.12 172.125L203.562 175.811L126.171 163.503L129.782 159.802ZM216.345 162.558L212.787 166.235L135.475 153.944L139.034 150.243L216.345 162.558ZM143.312 149.912L144.282 145.266L221.211 157.503L217.172 161.692L143.312 149.912ZM144.869 144.4L148.427 140.699L225.41 153.164L222.029 156.676L144.869 144.4ZM211.986 167.086L207.957 171.267L133.936 159.456L134.906 154.818L211.986 167.086ZM170.221 210.395L166.663 214.072L89.5563 201.812L93.1145 198.111L170.221 210.395ZM97.3488 197.796L98.3273 193.158L175.096 205.363L171.067 209.544L97.3488 197.796ZM98.9055 192.284L102.464 188.575L104.777 188.945V189.008L179.402 200.867L175.906 204.497L98.9055 192.284ZM106.022 188.181L106.983 183.591L184.232 195.882L180.291 199.977L106.022 188.181ZM165.863 214.954L161.824 219.135L87.9906 207.324L88.9602 202.678L165.863 214.954ZM50.5313 246.207L124.116 258.2L120.78 261.657L44.7492 248.735L47.6491 245.758L50.5313 246.207ZM51.3497 245.373L52.1948 240.971L128.955 253.184L125.139 257.121L51.3497 245.373ZM52.773 240.097L56.3312 236.396L133.305 248.664L129.747 252.341L52.773 240.097ZM60.5922 236.065L61.5618 231.427L138.18 243.609L134.15 247.79L60.5922 236.065ZM62.1489 230.553L65.7072 226.852L142.592 239.049L138.989 242.758L62.1489 230.553ZM69.5234 226.435L70.493 221.789L147.431 234.026L143.401 238.207L69.5234 226.435ZM71.0801 220.923L74.6384 217.222L77.3693 217.655L151.763 229.514L148.267 233.175L71.0801 220.923ZM78.6236 216.883L79.5843 212.277L156.602 224.529L152.599 228.679L78.6236 216.883Z" fill="#16110D"/>
<path d="M129.96 186.543L128.03 181.708L159.351 186.984L160.641 191.638L129.96 186.543Z" fill="#FAFAFB"/>
<path d="M178.904 165.747L158.675 186.724L128.03 181.708L148.258 160.723L178.904 165.747Z" fill="#9E0C05"/>
<path d="M170.364 168.424L156.922 182.362L136.569 179.031L150.011 165.093L170.364 168.424Z" fill="#9E0C05"/>
<path d="M148.89 162.298L129.88 181.984L160.392 187.134L179.535 167.29L148.89 162.298ZM156.896 182.362L139.371 179.031L150.144 165.392L170.07 168.369L156.896 182.362Z" fill="#9A0000"/>
<path d="M179.304 165.33L178.699 165.227L148.054 160.211L127.808 181.189L127.407 181.614L127.612 182.134L129.604 187.094L160.259 192.134L160.864 192.236L161.273 191.819L181.564 170.983L179.509 165.849L179.295 165.33H179.304ZM159.832 191.095L130.396 186.26L128.831 182.323L158.248 187.142L159.832 191.095ZM158.444 186.212L129.026 181.393L148.445 161.243L177.872 166.062L158.444 186.212Z" fill="#16110D"/>
<path d="M170.773 168.739L171.378 168.109L150.411 164.676L149.797 164.574L135.564 179.346L157.163 182.913L169.457 170.172L170.773 168.739ZM150.82 165.708L169.35 168.739L167.251 170.913L151.959 168.55L150.82 165.708ZM141.987 179.433L151.772 169.487L166.45 171.763L156.718 181.85L141.987 179.433Z" fill="#16110D"/>
<path d="M138.064 340.4L60.5744 327.691L35.9692 266.271L113.468 278.98L138.064 340.4ZM61.375 326.856L136.427 339.164L112.685 279.807L37.606 267.492L61.375 326.856Z" fill="#16110D"/>
<path d="M74.911 272.926L73.8965 273.245L98.0764 333.654L99.091 333.336L74.911 272.926Z" fill="#16110D"/>
<path d="M80.1804 313.43C79.264 313.735 78.2742 313.824 77.3071 313.69L59.9074 310.847C59.4304 310.82 58.9731 310.669 58.592 310.414C58.2108 310.158 57.9225 309.81 57.7626 309.411C57.6027 309.012 57.5782 308.581 57.6922 308.17C57.8062 307.759 58.0536 307.387 58.404 307.099L60.0942 305.351C60.2803 305.159 60.5444 305.04 60.8291 305.019C61.1139 304.999 61.3964 305.078 61.6153 305.241C61.8321 305.406 61.9668 305.639 61.9901 305.891C62.0135 306.144 61.9235 306.394 61.7399 306.587L60.0497 308.336C59.8006 308.595 59.7828 308.753 59.7917 308.769C59.8006 308.784 59.9251 308.91 60.2987 308.973L77.6985 311.816C78.2939 311.884 78.8991 311.827 79.4648 311.649C80.0305 311.471 80.5408 311.178 80.9543 310.792L82.6445 309.044C82.8306 308.852 83.0947 308.733 83.3795 308.712C83.6643 308.692 83.9467 308.771 84.1656 308.934C84.2734 309.015 84.3618 309.115 84.426 309.227C84.4902 309.339 84.5287 309.461 84.5395 309.586C84.5502 309.711 84.5329 309.837 84.4886 309.956C84.4443 310.075 84.3739 310.185 84.2813 310.28L82.6 312.052C81.9385 312.686 81.1059 313.16 80.1804 313.43Z" fill="#15100C"/>
<path d="M118.271 318.809C117.355 319.114 116.365 319.203 115.398 319.068L98.0069 316.218C97.5299 316.192 97.0719 316.043 96.69 315.789C96.308 315.534 96.019 315.186 95.8588 314.788C95.6986 314.389 95.6743 313.958 95.7889 313.547C95.9036 313.136 96.1521 312.764 96.5036 312.478L98.1937 310.73C98.3798 310.538 98.6439 310.418 98.9287 310.398C99.2135 310.377 99.496 310.457 99.7149 310.619C99.8227 310.701 99.9111 310.8 99.9753 310.912C100.039 311.024 100.078 311.146 100.089 311.271C100.099 311.396 100.082 311.522 100.038 311.641C99.9936 311.761 99.9231 311.871 99.8305 311.966L98.1404 313.714C97.8913 313.974 97.8824 314.131 97.8913 314.147C97.9002 314.163 98.0158 314.289 98.3984 314.344L115.789 317.194C116.386 317.263 116.993 317.206 117.56 317.028C118.127 316.85 118.639 316.557 119.054 316.171L120.744 314.423C120.929 314.231 121.191 314.112 121.475 314.091C121.758 314.071 122.039 314.15 122.256 314.312C122.473 314.477 122.608 314.711 122.631 314.963C122.654 315.215 122.565 315.465 122.381 315.659L120.691 317.407C120.034 318.051 119.2 318.534 118.271 318.809Z" fill="#15100C"/>
<path d="M152.332 337.195L126.535 272.807L126.686 272.649L236.422 159.29L262.22 223.686L262.068 223.836L152.332 337.195ZM127.425 272.948L152.608 335.833L261.312 223.545L236.129 160.66L127.425 272.948Z" fill="#9E0C05"/>
<path d="M32.5891 259.208L25.6683 257.948L23.1953 251.428L30.1161 252.688L32.5891 259.208Z" fill="#FAFAFA"/>
<path d="M23.1953 251.428L27.9367 246.876L34.813 248.01L30.1161 252.688L23.1953 251.428Z" fill="#FAFAFA"/>
<path d="M23.8003 253.05L28.5505 248.499L35.4179 249.632L30.73 254.31L23.8003 253.05Z" fill="#9A0000"/>
<path d="M35.1065 247.711L27.7943 246.499L22.7505 251.341L25.3569 258.255L32.7313 259.594L37.7218 254.617L35.1065 247.711ZM28.079 247.254L34.0568 248.239L29.9559 252.31L23.9336 251.207L28.079 247.254ZM31.993 258.751L25.9618 257.649L23.7824 251.892L29.8136 252.987L31.993 258.751Z" fill="#FFA6A6"/>
<path d="M118.387 273.059L111.466 271.799L109.002 265.279L115.923 266.539L118.387 273.059Z" fill="#FAFAFA"/>
<path d="M109.002 265.279L113.743 260.728L120.62 261.861L115.923 266.539L109.002 265.279Z" fill="#FAFAFA"/>
<path d="M109.607 266.901L114.348 262.35L121.225 263.483L116.528 268.161L109.607 266.901Z" fill="#C60000"/>
<path d="M120.913 261.562L113.574 260.35L108.521 265.192L111.137 272.106L118.502 273.445L123.502 268.468L120.913 261.562ZM113.877 261.106L119.854 262.09L115.771 266.161L109.758 265.058L113.877 261.106ZM117.8 272.602L111.795 271.5L109.607 265.744L115.647 266.838L117.8 272.602Z" fill="#FFA6A6"/>
<path d="M260.28 194.984L254.605 191.252L255.477 184.417L261.152 188.149L260.28 194.984Z" fill="#FAFAFA"/>
<path d="M224.627 145.258L229.377 140.707L236.245 141.84L231.557 146.518L224.627 145.258Z" fill="#FAFAFA"/>
<path d="M225.241 146.88L229.982 142.329L236.858 143.463L232.161 148.14L225.241 146.88Z" fill="#9A0000"/>
<path d="M236.547 141.533L229.217 140.329L224.173 145.171L226.789 152.077L234.154 153.424L239.145 148.439L236.547 141.533ZM229.511 141.085L235.489 142.069L231.405 146.132L225.383 145.037L229.511 141.085ZM233.434 152.573L227.438 151.479L225.259 145.715L231.29 146.817L233.434 152.573Z" fill="#FFA6A6"/>
<path d="M189.249 150.817L183.565 147.085L184.437 140.25L190.112 143.975L189.249 150.817Z" fill="#FAFAFA"/>
<path d="M139.185 131.698L143.926 127.147L150.802 128.281L146.105 132.958L139.185 131.698Z" fill="#FAFAFA"/>
<path d="M139.79 133.32L144.531 128.769L151.407 129.903L146.71 134.58L139.79 133.32Z" fill="#9A0000"/>
<path d="M151.096 127.982L143.819 126.769L138.767 131.612L141.382 138.518L148.747 139.864L153.747 134.887L151.096 127.982ZM144.059 127.525L150.046 128.509L145.963 132.58L139.941 131.486L144.059 127.525ZM147.982 139.022L141.951 137.919L139.763 132.163L145.803 133.257L147.982 139.022Z" fill="#FFA6A6"/>
<path d="M148.685 88.626L138.669 93.6892L148.543 116.525L158.195 111.643C159.636 111.06 160.472 109.532 160.472 107.454V94.6498L148.685 88.626Z" fill="#16110D"/>
<path d="M145.065 115.934L144.273 115.532C141.328 114.028 138.936 110.02 138.936 106.532V93.9331L150.366 99.7759V112.375C150.384 115.847 148 117.438 145.065 115.934Z" fill="#FAFAFA"/>
<path d="M147.182 116.816C146.37 116.795 145.579 116.586 144.887 116.21L144.095 115.8C141.062 114.225 138.598 110.091 138.598 106.532V93.7207L138.945 93.5396L150.74 99.5713V112.375C150.74 114.312 150.002 115.8 148.721 116.454C148.255 116.696 147.723 116.822 147.182 116.816ZM145.243 115.666C145.692 115.952 146.219 116.126 146.769 116.171C147.32 116.215 147.874 116.128 148.374 115.918C149.424 115.375 150.037 114.084 150.037 112.375V99.9335L139.3 94.4215V106.532C139.3 109.895 141.613 113.816 144.451 115.265L145.243 115.666Z" fill="#16110D"/>
<path d="M150.393 99.752L160.125 94.8306L148.685 88.9878L138.954 93.9093L150.393 99.752Z" fill="#FAFAFA"/>
<path d="M150.037 101.256V99.5869L158.212 95.6182L148.356 90.5786L139.3 95.1536V95.8466L150.037 101.256Z" fill="#9A0000"/>
<path d="M150.384 100.115L138.598 94.0908V93.7207L148.685 88.626L160.472 94.6577V95.0121L150.384 100.115ZM139.656 93.9333L150.384 99.4453L159.413 94.8782L148.685 89.3662L139.656 93.9333Z" fill="#16110D"/>
<path d="M168.443 28.6389L146.488 17.4022C146.265 17.2684 146.011 17.1812 145.744 17.147C145.478 17.1129 145.206 17.1329 144.949 17.2053L140.368 19.6306L146.488 27.9066L147.849 32.9855C148.349 34.861 149.645 36.4939 151.47 37.5448L156.167 39.9464L161.282 46.3089L165.89 43.8521C166.151 43.7328 166.38 43.5659 166.562 43.3622C166.745 43.1586 166.876 42.923 166.948 42.6709L170.693 32.8516C171.129 31.5524 170.008 29.442 168.443 28.6389Z" fill="#FAFAFA"/>
<path d="M168.994 30.4184L147.004 19.1817C146.782 19.0491 146.529 18.9626 146.264 18.9285C145.999 18.8944 145.729 18.9137 145.474 18.9849L140.893 21.4102L147.057 29.6861L148.409 34.765C148.915 36.6401 150.21 38.2736 152.03 39.3322L156.727 41.6945L159.547 44.8442L163.994 43.0253L164.155 42.3795C164.408 42.2554 164.631 42.0866 164.808 41.8834C164.986 41.6803 165.115 41.4472 165.186 41.1984L170.15 35.1588C170.604 33.8989 170.559 31.2216 168.994 30.4184Z" fill="#670000"/>
<path d="M161.201 46.7343L155.944 40.1908L151.31 37.8285C149.401 36.7313 148.044 35.025 147.52 33.0645L146.186 28.0407L139.852 19.5364L144.905 16.8591C145.192 16.7991 145.49 16.792 145.781 16.838C146.072 16.8841 146.349 16.9823 146.595 17.1268L168.576 28.3635C170.284 29.2297 171.467 31.5132 170.978 32.9385L167.277 42.7499C167.112 43.2945 166.717 43.7622 166.174 44.0571L166.094 44.1043L161.201 46.7343ZM140.839 19.7332L146.853 27.8359L148.205 32.9149C148.694 34.7041 149.93 36.2629 151.665 37.2772L156.469 39.7734L161.397 45.8997L165.756 43.5374C165.973 43.4364 166.164 43.2968 166.317 43.1274C166.47 42.958 166.582 42.7625 166.646 42.5531L170.391 32.7259C170.782 31.5762 169.715 29.5761 168.309 28.8753L146.319 17.6386C146.146 17.5294 145.947 17.4564 145.738 17.425C145.528 17.3937 145.313 17.4048 145.109 17.4575L140.839 19.7332Z" fill="#16110D"/>
<path d="M158.577 46.0965L146.755 40.0569C144.933 39.0037 143.637 37.3718 143.135 35.4976L139.505 21.8829C139.025 20.1033 140.155 19.1111 141.729 19.9143L163.719 31.151C165.276 31.9384 166.388 34.0566 165.961 35.3638L162.216 45.1831C161.735 46.5847 160.259 46.9627 158.577 46.0965Z" fill="#9E0C05"/>
<path d="M170.746 32.8598L170.533 30.844L166.014 33.2063C165.605 32.2545 164.859 31.4452 163.888 30.8991L141.907 19.6624C141.597 19.4634 141.228 19.351 140.846 19.3398C140.464 19.3286 140.086 19.419 139.763 19.5994C139.416 19.9001 139.175 20.2829 139.068 20.7018C138.961 21.1207 138.992 21.5581 139.158 21.9617L142.796 35.5765C143.327 37.5215 144.68 39.2124 146.577 40.3011L158.399 46.3407C158.965 46.6502 159.612 46.8239 160.276 46.8446C160.58 46.8473 160.882 46.7992 161.166 46.7029C161.657 46.5253 162.061 46.1987 162.304 45.7816L166.476 43.4902L170.746 32.8598ZM160.89 46.1438C160.53 46.2363 160.152 46.256 159.782 46.2015C159.412 46.147 159.061 46.0196 158.755 45.8288L146.933 39.7892C145.2 38.7746 143.966 37.2155 143.481 35.4268L139.843 21.8121C139.715 21.5236 139.678 21.2095 139.738 20.904C139.798 20.5985 139.951 20.3134 140.181 20.0797C140.327 19.9838 140.506 19.934 140.688 19.938C141.003 19.9512 141.309 20.0352 141.578 20.1821L163.559 31.4188C164.964 32.1353 166.032 34.1197 165.64 35.2615L161.877 45.1123C161.814 45.3402 161.693 45.5521 161.521 45.7312C161.35 45.9102 161.134 46.0515 160.89 46.1438Z" fill="#16110D"/>
<path d="M153.16 71.8847C152.475 71.0422 151.541 70.7193 151.034 71.1445C150.653 71.4568 150.209 71.7026 149.726 71.869C149.165 72.058 148.294 71.5697 147.822 70.7981L147.44 70.1839C146.808 69.1523 146.799 68.0657 147.44 67.6798L148.267 67.1601C149.504 66.3727 150.188 64.9789 150.188 63.1757V59.0417L147.075 57.4668L144.816 58.7739L145.705 64.0183L145.118 64.3884C143.864 65.1758 143.543 66.9317 144.122 68.924L143.543 70.0421L146.826 74.7667L150.598 76.1605L152.306 75.1211C152.735 74.9304 153.133 74.6894 153.489 74.4045C154.049 73.9242 153.898 72.806 153.16 71.8847Z" fill="#FAFAFA"/>
<path d="M150.642 76.4837L146.595 74.9876L143.152 70.0661L143.757 68.8929C143.17 66.7589 143.606 64.9557 144.923 64.1289L145.341 63.869L144.451 58.6247L147.075 57.105L150.553 58.8767V63.2233C150.553 65.1368 149.824 66.6487 148.49 67.4676L147.645 67.9952C147.235 68.2472 147.155 69.1212 147.76 70.0898L148.143 70.704C148.552 71.3733 149.273 71.7512 149.611 71.6331C150.056 71.4841 150.464 71.2594 150.811 70.9717C150.931 70.8754 151.072 70.8025 151.225 70.7578C151.378 70.713 151.54 70.6973 151.701 70.7118C152.055 70.7735 152.391 70.8981 152.69 71.0781C152.988 71.2581 153.242 71.4898 153.436 71.7591C154.325 72.7985 154.414 74.0663 153.72 74.6332C153.343 74.947 152.918 75.2121 152.457 75.4207L150.642 76.4837ZM147.084 74.4915L150.58 75.775L152.128 74.838C152.544 74.6532 152.93 74.4202 153.276 74.145C153.64 73.8379 153.56 72.9009 152.893 72.0899C152.618 71.6939 152.176 71.4107 151.665 71.3024C151.598 71.2932 151.53 71.2976 151.465 71.3153C151.4 71.333 151.341 71.3637 151.292 71.4048C150.875 71.7409 150.393 72.0077 149.869 72.1922C149.148 72.4442 148.089 71.893 147.529 70.9796L147.146 70.3654C146.408 69.1685 146.453 67.9401 147.244 67.4519L148.089 66.9321C149.237 66.2313 149.869 64.9006 149.869 63.1997V59.2625L147.12 57.8609L145.234 58.9554L146.123 64.184L145.35 64.6643C144.264 65.3336 143.935 66.9479 144.46 68.8692V68.9795L143.908 70.0504L147.084 74.4915Z" fill="#16110D"/>
<path d="M147.466 73.2001C146.906 73.3891 146.034 72.9009 145.563 72.1292L145.18 71.515C144.549 70.4834 144.54 69.3968 145.18 69.0109L146.07 68.4834C147.306 67.6959 147.991 66.31 147.991 64.4989V60.3649L144.878 58.79V62.9241C144.914 63.3524 144.831 63.7819 144.637 64.1757C144.444 64.5694 144.144 64.9155 143.766 65.184L142.876 65.7116C141.168 66.7668 141.177 69.7118 142.876 72.5072L143.259 73.1292C144.016 74.4218 145.153 75.5099 146.55 76.2789C146.969 76.5358 147.448 76.7065 147.951 76.7787C148.455 76.8509 148.97 76.8228 149.459 76.6963C150.116 76.4726 150.72 76.1414 151.238 75.7199C151.781 75.271 151.638 74.145 150.9 73.2552C150.215 72.4126 149.281 72.0898 148.774 72.515C148.392 72.8158 147.948 73.0485 147.466 73.2001Z" fill="#FAFAFA"/>
<path d="M148.605 77.1057C147.819 77.0836 147.052 76.8801 146.382 76.5151C144.936 75.7173 143.754 74.5954 142.957 73.263L142.583 72.6409C140.759 69.688 140.804 66.5934 142.663 65.4438L143.508 64.9162C143.839 64.6745 144.099 64.3658 144.266 64.0162C144.433 63.6667 144.503 63.2866 144.469 62.9082V58.2388L148.285 60.1916V64.4989C148.285 66.4123 147.556 67.9242 146.221 68.7431L145.376 69.2628C144.967 69.5227 144.887 70.3967 145.492 71.3653L145.866 71.9795C146.275 72.6488 146.995 73.0346 147.342 72.9086C147.784 72.7586 148.189 72.5339 148.534 72.2472C148.653 72.1505 148.794 72.0774 148.947 72.0326C149.101 71.9878 149.263 71.9724 149.424 71.9874C149.786 72.044 150.131 72.1663 150.437 72.3465C150.743 72.5267 151.004 72.761 151.203 73.0346C152.092 74.0741 152.181 75.3418 151.488 75.9088C150.94 76.3594 150.3 76.7123 149.602 76.9482C149.285 77.058 148.946 77.1115 148.605 77.1057ZM145.172 59.286V62.8767C145.211 63.3563 145.116 63.837 144.896 64.2764C144.676 64.7159 144.337 65.1005 143.909 65.3965L143.019 65.9163C141.471 66.869 141.533 69.6802 143.152 72.3102L143.535 72.9323C144.269 74.1645 145.358 75.2025 146.693 75.9403C147.068 76.1722 147.496 76.3278 147.946 76.3958C148.397 76.4639 148.859 76.4428 149.299 76.334C149.913 76.1277 150.475 75.8174 150.954 75.4206C151.327 75.1135 151.239 74.1686 150.58 73.3654C150.302 72.9683 149.857 72.6851 149.344 72.5779C149.278 72.5667 149.21 72.5702 149.147 72.5881C149.083 72.6059 149.025 72.6377 148.979 72.6803C148.562 73.0164 148.08 73.2832 147.556 73.4677C146.826 73.7197 145.777 73.1685 145.207 72.2551L144.834 71.6409C144.095 70.444 144.131 69.2156 144.932 68.7274L145.777 68.2077C146.391 67.7588 146.874 67.1849 147.184 66.535C147.494 65.885 147.622 65.1783 147.556 64.4752V60.5381L145.172 59.286Z" fill="#16110D"/>
<path d="M153.364 71.7198C153.165 71.4461 152.904 71.2118 152.598 71.0316C152.292 70.8514 151.947 70.7291 151.585 70.6725C151.424 70.6574 151.261 70.6736 151.107 70.7198C150.954 70.7661 150.813 70.8412 150.696 70.9402C150.346 71.2253 149.938 71.4497 149.495 71.6016C149.157 71.7119 148.436 71.3418 148.027 70.6725L147.644 70.0583C147.048 69.0818 147.12 68.2078 147.529 67.9558L148.374 67.4361C149.708 66.6093 150.447 65.0738 150.447 63.1918V58.8846L146.968 57.105L144.344 58.6326L145.234 63.8769L144.825 64.1289C143.508 64.9163 143.045 66.7589 143.659 68.8929L143.045 70.0661L146.488 74.9876L150.544 76.4837L152.377 75.3734C152.835 75.1609 153.26 74.8962 153.64 74.586C154.352 74.0269 154.218 72.767 153.364 71.7198ZM147.013 57.8373L149.762 59.2389V61.0185L147.858 62.0658L145.189 59.2389V58.9318L147.013 57.8373Z" fill="#16110D"/>
<path d="M147.378 73.2001C146.817 73.3891 145.945 72.9009 145.465 72.1292L145.091 71.515C144.451 70.4834 144.451 69.3968 145.091 69.0109L145.937 68.4834C147.173 67.6959 147.849 66.31 147.849 64.4989V60.3649L144.736 58.79V62.9241C144.774 63.3526 144.692 63.7828 144.498 64.1769C144.304 64.571 144.004 64.9168 143.624 65.184L142.779 65.7116C141.071 66.7668 141.08 69.7118 142.779 72.5072L143.161 73.1292C143.919 74.4219 145.056 75.5099 146.452 76.2789C146.87 76.5356 147.347 76.7063 147.849 76.7785C148.351 76.8508 148.865 76.8227 149.352 76.6963C150.01 76.4738 150.614 76.1424 151.132 75.7199C151.674 75.271 151.532 74.145 150.794 73.2552C150.109 72.4126 149.175 72.0898 148.668 72.515C148.291 72.8141 147.853 73.0466 147.378 73.2001Z" fill="#FAFAFA"/>
<path d="M148.525 77.1057C147.738 77.0836 146.972 76.8801 146.301 76.5151C144.854 75.7194 143.672 74.5969 142.876 73.263L142.494 72.6409C140.67 69.688 140.715 66.5934 142.574 65.4438L143.463 64.9162C143.794 64.6745 144.054 64.3658 144.221 64.0162C144.388 63.6667 144.458 63.2866 144.424 62.9082V58.2388L148.24 60.1916V64.4989C148.24 66.4123 147.502 67.9242 146.168 68.7431L145.278 69.2628C144.869 69.5227 144.798 70.3967 145.394 71.3653L145.776 71.9795C146.185 72.6488 146.906 73.0346 147.244 72.9086C147.688 72.7567 148.095 72.5323 148.445 72.2472C148.563 72.1497 148.704 72.0759 148.858 72.0311C149.011 71.9862 149.174 71.9713 149.334 71.9874C149.689 72.049 150.025 72.1736 150.323 72.3536C150.621 72.5336 150.875 72.7653 151.069 73.0346C151.959 74.0741 152.048 75.3418 151.354 75.9088C150.807 76.3594 150.166 76.7123 149.468 76.9482C149.168 77.053 148.848 77.1064 148.525 77.1057ZM145.091 59.286V62.8767C145.13 63.3562 145.035 63.8366 144.814 64.276C144.594 64.7153 144.255 65.1001 143.828 65.3965L142.983 65.9163C141.435 66.869 141.489 69.6802 143.116 72.3102L143.49 72.9323C144.226 74.1655 145.319 75.2036 146.657 75.9403C147.03 76.172 147.456 76.3276 147.906 76.3957C148.355 76.4638 148.815 76.4427 149.254 76.334C149.869 76.1259 150.434 75.8159 150.918 75.4206C151.283 75.1135 151.203 74.1686 150.535 73.3654C150.26 72.9694 149.819 72.6862 149.308 72.5779C149.241 72.5667 149.172 72.5702 149.107 72.5881C149.041 72.6059 148.982 72.6376 148.934 72.6803C148.519 73.0181 148.036 73.2851 147.511 73.4677C146.79 73.7197 145.732 73.1685 145.171 72.2551L144.789 71.6409C144.05 70.444 144.095 69.2156 144.887 68.7274L145.732 68.2077C146.879 67.5068 147.511 66.1761 147.511 64.4752V60.5381L145.091 59.286Z" fill="#16110D"/>
<path d="M146.274 39.6001L138.126 43.7184L146.132 61.8294L153.844 57.9316C155.01 57.4512 155.686 56.2228 155.686 54.5535V44.4113L146.274 39.6001Z" fill="#16110D"/>
<path d="M143.41 61.3094L142.778 60.9866C140.457 59.7975 138.571 56.6084 138.571 53.8603V43.8599L147.627 48.49V58.4983C147.627 61.2385 145.741 62.4984 143.41 61.3094Z" fill="#FAFAFA"/>
<path d="M145.083 62.0657C144.429 62.0471 143.791 61.8789 143.232 61.5775L142.61 61.2546C140.181 60.0184 138.215 56.7033 138.215 53.8606V43.3169L148 48.3092V58.4986C148 60.0735 147.404 61.2547 146.364 61.7822C145.973 61.9774 145.531 62.0753 145.083 62.0657ZM138.918 44.3957V53.8449C138.918 56.4907 140.697 59.5695 142.957 60.7113L143.588 61.0263C143.931 61.2483 144.335 61.3839 144.758 61.4185C145.181 61.4532 145.607 61.3857 145.99 61.2231C146.808 60.8137 147.271 59.8058 147.271 58.475V48.6714L138.918 44.3957Z" fill="#16110D"/>
<path d="M138.1 -0.332031H137.166V12.967H138.1V-0.332031Z" fill="#16110D"/>
<path d="M147.707 22.3631C144.816 20.8827 142.191 20.7095 140.234 21.5757C139.903 21.7492 139.582 21.9384 139.274 22.1426L137.112 23.4261L137.752 23.9222C137.119 25.1763 136.815 26.5413 136.863 27.9145C136.863 34.0565 141.738 41.5292 147.751 44.6002C153.765 47.6712 158.639 45.1829 158.639 39.041C158.639 32.899 153.72 25.4262 147.707 22.3631Z" fill="#FAFAFA"/>
<path d="M142.263 41.6946L156.763 34.0722C154.983 29.5523 151.301 25.2136 147.075 23.0481C144.175 21.5678 141.551 21.3867 139.603 22.2607C139.275 22.4348 138.957 22.6241 138.651 22.8277L136.481 24.119L137.121 24.6072C136.493 25.8628 136.189 27.2268 136.231 28.5995C136.187 32.9934 138.669 38.0251 142.263 41.6946Z" fill="#670000"/>
<path d="M152.573 46.2538C150.786 46.1963 149.047 45.7267 147.529 44.8916C141.435 41.7418 136.471 34.1667 136.471 27.9302C136.437 26.5806 136.722 25.2396 137.308 23.9931L136.525 23.3867L139.069 21.8827C139.381 21.6703 139.708 21.4757 140.048 21.3L140.208 21.2134C142.334 20.3236 145.038 20.615 147.858 22.056C153.96 25.2057 158.924 32.7808 158.924 39.0173C158.924 42.1041 157.723 44.4191 155.553 45.5215C154.651 45.9966 153.622 46.2495 152.573 46.2538ZM137.672 23.4733L138.171 23.8592L138.055 24.0718C137.431 25.2815 137.127 26.601 137.165 27.9302C137.165 33.962 141.969 41.3166 147.84 44.3482C150.633 45.7735 153.24 46.0176 155.188 45.0254C157.136 44.0333 158.195 41.9151 158.195 39.0567C158.195 33.0249 153.391 25.6703 147.52 22.6387C144.851 21.2685 142.316 21.0008 140.403 21.8512L140.27 21.9142C140.001 22.0543 139.742 22.2095 139.496 22.3788L137.672 23.4733Z" fill="#16110D"/>
<path d="M155.766 40.7656C155.766 46.9076 150.891 49.4273 144.878 46.3249C138.864 43.2224 134.034 35.7811 134.034 29.6391C134.034 23.4971 138.909 20.9773 144.922 24.072C150.936 27.1666 155.766 34.6157 155.766 40.7656Z" fill="#FAFAFB"/>
<path d="M149.735 47.9547C147.951 47.8969 146.215 47.4273 144.7 46.5925C138.598 43.4821 133.634 35.8676 133.634 29.639C133.634 26.5523 134.835 24.2372 137.005 23.1269C139.176 22.0166 142.031 22.2607 145.056 23.8041C151.149 26.9538 156.113 34.529 156.113 40.7654C156.113 43.8522 154.921 46.1594 152.75 47.2696C151.833 47.7337 150.791 47.9703 149.735 47.9547ZM140.021 23.0639C139.087 23.0558 138.166 23.2649 137.352 23.6702C135.413 24.6624 134.345 26.82 134.345 29.639C134.345 35.6786 139.149 43.0254 145.02 46.057C147.813 47.4823 150.42 47.7264 152.368 46.7342C154.316 45.742 155.375 43.6238 155.375 40.7654C155.375 34.7258 150.571 27.3791 144.7 24.3474C143.293 23.5669 141.68 23.1245 140.021 23.0639Z" fill="#16110D"/>
<path d="M147.164 41.364C146.291 41.335 145.441 41.1043 144.7 40.6947C143.16 39.8061 141.878 38.6086 140.958 37.1995C140.039 35.7903 139.507 34.2091 139.407 32.5841C139.407 31.0723 140.003 29.9384 141.08 29.3872C142.156 28.836 143.57 28.9462 145.056 29.7021C146.592 30.5935 147.871 31.7917 148.789 33.2005C149.707 34.6092 150.238 36.189 150.34 37.8127C150.407 38.4302 150.288 39.0525 149.994 39.6157C149.7 40.1789 149.242 40.6627 148.668 41.0175C148.21 41.2487 147.691 41.3682 147.164 41.364ZM142.592 29.6628C142.187 29.6569 141.788 29.7466 141.435 29.9226C140.97 30.224 140.602 30.6287 140.369 31.096C140.137 31.5632 140.047 32.0765 140.11 32.5841C140.204 34.1021 140.7 35.579 141.56 36.8952C142.419 38.2114 143.617 39.3296 145.056 40.1592C146.301 40.7971 147.467 40.9467 148.312 40.4742C149.157 40.0018 149.637 39.0962 149.637 37.8127C149.543 36.2969 149.047 34.8219 148.189 33.5072C147.332 32.1926 146.136 31.0752 144.7 30.2455C144.067 29.8913 143.34 29.6903 142.592 29.6628Z" fill="#16110D"/>
<path d="M148.872 37.7968C148.872 40.0488 147.093 40.9465 144.878 39.8362C143.715 39.1665 142.748 38.2633 142.054 37.2002C141.36 36.137 140.959 34.9439 140.884 33.7179C140.884 31.4658 142.663 30.5681 144.878 31.6784C146.04 32.3482 147.008 33.2513 147.702 34.3144C148.396 35.3776 148.797 36.5707 148.872 37.7968Z" fill="#670000"/>
<path d="M153.204 17.7681L152.662 17.5026L154.93 16.9501C156.62 16.5364 156.825 15.0206 156.762 14.4804V-0.065918H157.705V14.468C157.705 14.5483 157.928 16.629 155.482 17.2155L153.204 17.7681Z" fill="#16110D"/>
<path d="M151.923 37.6079L129.942 26.3713C129.722 26.233 129.467 26.143 129.2 26.1088C128.932 26.0746 128.659 26.0971 128.404 26.1744L123.822 28.5761L129.987 36.852L131.366 41.9625C131.872 43.8352 133.167 45.4662 134.986 46.5217L139.683 48.9234L144.798 55.2858L149.415 52.829C149.669 52.7049 149.891 52.5361 150.069 52.3329C150.246 52.1298 150.375 51.8967 150.447 51.6479L154.192 41.8365C154.61 40.5136 153.489 38.4032 151.923 37.6079Z" fill="#FAFAFA"/>
<path d="M151.994 39.4267L130.013 28.1979C129.793 28.0596 129.538 27.9697 129.271 27.9355C129.003 27.9012 128.73 27.9237 128.474 28.001L123.893 30.4185L130.058 38.6944L131.419 43.7734C131.921 45.6497 133.217 47.2842 135.039 48.3405L139.736 50.7028L143.757 52.6399L148.374 50.1831C148.628 50.0589 148.85 49.8901 149.028 49.687C149.205 49.4838 149.334 49.2507 149.406 49.0019L153.747 43.5923C153.963 42.8225 153.911 42.0129 153.598 41.2696C153.285 40.5264 152.726 39.884 151.994 39.4267Z" fill="#670000"/>
<path d="M144.709 55.695L139.451 49.1514L134.817 46.7891C132.917 45.7014 131.561 44.0105 131.027 42.0645L129.684 37.0328L123.359 28.4891L128.412 25.8119H128.457C128.742 25.7524 129.038 25.7447 129.327 25.7894C129.616 25.834 129.892 25.9301 130.138 26.0717L152.128 37.3084C153.836 38.1824 155.019 40.4581 154.53 41.8834L150.784 51.7106C150.622 52.2562 150.226 52.7247 149.681 53.0177L149.601 53.065L144.709 55.695ZM124.347 28.6939L130.36 36.8045L131.712 41.8834C132.199 43.6711 133.432 45.2295 135.164 46.2458L139.976 48.7341L144.904 54.8603L149.263 52.5374C149.481 52.4355 149.673 52.2947 149.826 52.1239C149.979 51.9532 150.09 51.7561 150.153 51.5452L153.898 41.718C154.28 40.5763 153.213 38.5683 151.807 37.8754L129.764 26.6387C129.591 26.5295 129.392 26.4565 129.183 26.4251C128.973 26.3937 128.758 26.4048 128.554 26.4576L124.347 28.6939Z" fill="#16110D"/>
<path d="M142.04 55.0655L130.236 49.0495C128.413 47.9932 127.117 46.3587 126.615 44.4824L122.986 30.8755C122.505 29.088 123.626 28.0959 125.21 28.9069L147.2 40.1436C148.756 40.931 149.868 43.0492 149.441 44.3485L145.696 54.1678C145.216 55.5537 143.739 55.9238 142.04 55.0655Z" fill="#9E0C05"/>
<path d="M153.142 70.113L154.12 68.987L151.879 68.0657L151.487 67.9318C151.002 67.8162 150.494 67.7943 149.998 67.8677C149.503 67.941 149.031 68.1079 148.614 68.357C147.273 69.135 146.158 70.1824 145.36 71.4139C144.563 72.6454 144.105 74.0262 144.024 75.4439V96.6259L146.613 97.8622L147.831 76.6015L148.899 72.2391L150.527 70.7508C150.818 71.0704 150.964 71.4748 150.936 71.8847V92.8856L153.524 93.9093L154.209 83.7829L154.725 71.3257L153.213 70.7193C153.205 70.516 153.182 70.3134 153.142 70.113Z" fill="#FAFAFA"/>
<path d="M153.676 71.0975L154.654 69.9715L152.413 69.0424L152.012 68.9085C151.527 68.7886 151.019 68.7645 150.522 68.838C150.026 68.9115 149.553 69.0807 149.139 69.3337C147.799 70.1131 146.685 71.1608 145.888 72.392C145.091 73.6232 144.632 75.0033 144.549 76.4206V77.6884L147.324 78.9325L148.356 77.5781L149.424 73.2157L151.052 71.7275C151.354 72.0488 151.506 72.4598 151.478 72.8772L151.665 73.9717L154.263 74.9954L154.761 84.7753L155.268 72.3181L153.765 71.7117C153.752 71.5053 153.722 71.3001 153.676 71.0975Z" fill="#670000"/>
<path d="M146.906 98.3189L143.633 96.6653V75.4046C143.726 73.939 144.206 72.5132 145.034 71.2415C145.862 69.9698 147.015 68.8875 148.401 68.0814C148.859 67.8057 149.381 67.6226 149.928 67.545C150.475 67.4675 151.035 67.4974 151.568 67.6326L152.021 67.7822L154.619 68.8531L153.462 70.1839C153.462 70.2784 153.462 70.365 153.462 70.4595L154.984 71.0737L154.468 83.7435L153.943 93.9329L153.534 94.2479L150.562 93.0746V71.8847C150.573 71.6641 150.53 71.4442 150.438 71.239L149.157 72.3414L148.134 76.6093L146.906 98.3189ZM144.336 96.3818L146.257 97.3031L147.44 76.5385L148.534 72.0343L150.5 70.2469L150.749 70.4831C151.11 70.863 151.294 71.3498 151.265 71.8454V92.6494L153.187 93.4368L153.845 83.7592L154.343 71.5146L152.84 70.9162V70.7193C152.849 70.5751 152.849 70.4305 152.84 70.2862V70.0579L153.631 69.1366L151.719 68.3492L151.399 68.2468C150.962 68.1422 150.505 68.1232 150.06 68.1912C149.614 68.2592 149.191 68.4125 148.819 68.6405C147.526 69.3821 146.45 70.3835 145.677 71.5629C144.904 72.7424 144.457 74.0667 144.371 75.4282V96.4212L144.336 96.3818Z" fill="#16110D"/>
<path d="M154.61 68.7983C154.033 68.5558 153.394 68.4549 152.759 68.5062C152.123 68.5574 151.515 68.759 150.998 69.0897C149.611 69.8948 148.457 70.9769 147.629 72.2488C146.801 73.5207 146.322 74.947 146.23 76.4128V97.4137C146.23 97.4865 146.252 97.5579 146.293 97.6209C146.334 97.6839 146.393 97.7363 146.464 97.7729C146.535 97.8095 146.616 97.8291 146.698 97.8296C146.78 97.8301 146.861 97.8116 146.933 97.7759L149.21 96.6105V75.4915C149.201 74.9126 149.329 74.3385 149.584 73.8057C149.84 73.2728 150.219 72.793 150.696 72.3969C151.452 71.7748 152.19 71.6095 152.653 71.8063C152.835 71.9306 152.977 72.0946 153.066 72.2824C153.155 72.4701 153.187 72.6752 153.16 72.8773V94.075L153.533 94.2246L156.14 92.886V71.7118C156.203 71.1494 156.095 70.5821 155.826 70.0694C155.557 69.5568 155.137 69.1177 154.61 68.7983Z" fill="#16110D"/>
<path d="M153.445 71.7432C153.253 71.472 153 71.2389 152.701 71.0586C152.403 70.8784 152.065 70.7549 151.71 70.6959C151.549 70.6818 151.387 70.6977 151.234 70.7425C151.081 70.7872 150.94 70.8599 150.82 70.9557C150.472 71.2425 150.064 71.4671 149.619 71.6172C149.578 71.6233 149.536 71.6233 149.495 71.6172H149.299L149.201 71.7746C148.773 72.8936 148.548 74.0657 148.534 75.2472V75.6882L150.669 76.4756L152.502 75.3654C152.96 75.1528 153.384 74.8881 153.765 74.5779C154.432 74.0503 154.307 72.7826 153.445 71.7432Z" fill="#16110D"/>
<path d="M149.326 72.3179C149.049 73.2842 148.89 74.2743 148.854 75.2707V76.7984C149.064 76.7834 149.271 76.7437 149.468 76.6803C150.126 76.4539 150.729 76.12 151.247 75.696C151.79 75.2471 151.648 74.1211 150.909 73.2313C150.742 72.9817 150.513 72.7694 150.238 72.611C149.963 72.4526 149.651 72.3523 149.326 72.3179Z" fill="#FAFAFA"/>
<path d="M148.507 77.1449V75.2708C148.54 74.2424 148.701 73.2205 148.988 72.2234L149.059 72.0029H149.326C149.707 72.0401 150.073 72.1538 150.397 72.3353C150.72 72.5168 150.993 72.7613 151.194 73.0502C152.083 74.0896 152.172 75.3574 151.478 75.9244C150.932 76.3773 150.291 76.7329 149.593 76.9716C149.366 77.0441 149.13 77.0891 148.89 77.1055L148.507 77.1449ZM149.584 72.6644C149.374 73.5219 149.249 74.394 149.21 75.2708V76.4283H149.335C149.952 76.2211 150.518 75.908 150.998 75.507C151.372 75.2078 151.283 74.2629 150.624 73.4518C150.375 73.1043 150.012 72.8324 149.584 72.6723V72.6644Z" fill="#16110D"/>
<path d="M130.138 43.3247C129.91 43.1631 129.632 43.0662 129.341 43.0466C129.05 43.0271 128.759 43.0859 128.506 43.2152C128.253 43.3446 128.051 43.5385 127.924 43.7716C127.798 44.0047 127.754 44.2661 127.799 44.5216C127.83 45.1348 128.028 45.7324 128.374 46.2641C128.721 46.7957 129.207 47.2459 129.791 47.5768C130.087 47.7431 130.428 47.8355 130.779 47.8445C131.006 47.8444 131.229 47.7929 131.428 47.6949C131.669 47.5528 131.863 47.3555 131.988 47.1241C132.113 46.8926 132.166 46.6355 132.14 46.3799C132.106 45.7661 131.907 45.1683 131.559 44.6367C131.211 44.1051 130.723 43.6552 130.138 43.3247ZM128.857 43.7499C128.948 43.7079 129.049 43.6862 129.151 43.6869C129.378 43.6937 129.599 43.7535 129.791 43.8601C130.053 44.0022 130.287 44.1803 130.485 44.3877L128.902 45.7972C128.655 45.4063 128.518 44.9689 128.501 44.5216C128.48 44.3767 128.502 44.2293 128.564 44.094C128.626 43.9587 128.727 43.8401 128.857 43.7499ZM131.081 47.1516C130.926 47.2065 130.758 47.2252 130.593 47.2059C130.428 47.1865 130.271 47.1299 130.138 47.0414C129.791 46.8633 129.489 46.6249 129.249 46.3405L130.868 44.8995C131.188 45.3434 131.372 45.8537 131.401 46.3799C131.425 46.522 131.408 46.6671 131.352 46.8019C131.296 46.9367 131.203 47.057 131.081 47.1516Z" fill="#16110D"/>
<path d="M142.77 49.7817C142.543 49.6157 142.264 49.515 141.971 49.4932C141.678 49.4715 141.384 49.5296 141.13 49.6599C140.875 49.7903 140.671 49.9865 140.546 50.2222C140.421 50.4579 140.381 50.7219 140.43 50.9787C140.462 51.5919 140.659 52.1895 141.006 52.7211C141.353 53.2528 141.839 53.703 142.423 54.0339C142.72 54.1977 143.06 54.29 143.41 54.3016C143.637 54.3015 143.861 54.25 144.06 54.152C144.3 54.0087 144.492 53.8112 144.617 53.5801C144.742 53.3489 144.795 53.0924 144.771 52.837C144.738 52.2232 144.539 51.6254 144.19 51.0938C143.842 50.5622 143.355 50.1122 142.77 49.7817ZM141.489 50.207C141.578 50.1614 141.68 50.1395 141.782 50.144C142.009 50.1508 142.23 50.2105 142.423 50.3172C142.684 50.4592 142.919 50.6374 143.117 50.8448L141.533 52.2543C141.287 51.8634 141.15 51.426 141.133 50.9787C141.112 50.8338 141.134 50.6867 141.197 50.5516C141.259 50.4164 141.36 50.2978 141.489 50.207ZM143.704 53.6087C143.551 53.6637 143.384 53.6824 143.22 53.663C143.056 53.6437 142.901 53.587 142.77 53.4984C142.425 53.3178 142.123 53.0799 141.88 52.7976L143.499 51.3488C143.817 51.796 143.998 52.309 144.024 52.837C144.056 52.9793 144.043 53.1266 143.987 53.2628C143.93 53.3989 143.832 53.5187 143.704 53.6087Z" fill="#16110D"/>
<path d="M154.165 41.8206L153.943 39.8048L149.495 42.1198C149.08 41.1839 148.342 40.3875 147.386 39.8441L125.388 28.576C125.078 28.377 124.709 28.2646 124.327 28.2534C123.945 28.2421 123.567 28.3326 123.244 28.513C122.896 28.8132 122.654 29.1959 122.547 29.615C122.44 30.0342 122.472 30.4718 122.639 30.8753L126.268 44.49C126.802 46.436 128.158 48.1268 130.058 49.2146L141.88 55.3487C142.446 55.6583 143.093 55.832 143.757 55.8527C144.062 55.8585 144.365 55.8075 144.647 55.7031C145.166 55.5177 145.59 55.1703 145.839 54.7266L149.904 52.4903L154.165 41.8206ZM149.103 44.2302L148.125 46.7893L145.038 45.2144L148.498 41.7497C149.058 42.4749 149.275 43.3652 149.103 44.2302ZM128.483 36.7495L132.344 32.8832L135.333 34.4109L131.481 38.285L128.483 36.7495ZM140.617 37.1117L143.615 38.6866L139.763 42.5529L136.756 41.0174L140.617 37.1117ZM123.662 29.0484C123.876 28.9425 124.12 28.8957 124.365 28.9139C124.609 28.9322 124.841 29.0147 125.032 29.1508L127.069 30.1902L124 33.3399L123.359 30.7808C123.226 30.4952 123.183 30.1826 123.236 29.877C123.29 29.5715 123.437 29.2848 123.662 29.0484ZM144.371 55.1125C144.01 55.2045 143.63 55.224 143.259 55.1695C142.888 55.115 142.535 54.9879 142.227 54.7975L130.414 48.7579C128.678 47.742 127.444 46.1795 126.962 44.3876L124.578 35.4739L147.894 47.3956L145.358 54.0573C145.298 54.2891 145.177 54.5052 145.006 54.6884C144.834 54.8716 144.617 55.0168 144.371 55.1125Z" fill="#16110D"/>
<path d="M147.769 54.4119L147.484 53.8449C148.329 53.5142 149.771 52.8213 150.029 52.3488C150.429 51.6244 152.208 46.9549 152.226 46.9155L152.893 47.1124C152.822 47.3014 151.114 51.837 150.66 52.6244C150.206 53.4119 148.018 54.3174 147.769 54.4119Z" fill="#FAFAFA"/>
<path d="M152.777 74.4596L153.275 74.9163C153.516 74.8097 153.728 74.6594 153.898 74.4753C154.592 73.9084 154.467 72.6406 153.613 71.6012C153.419 71.3319 153.165 71.1002 152.867 70.9202C152.569 70.7402 152.233 70.6156 151.879 70.5539C151.718 70.5389 151.556 70.5543 151.402 70.5991C151.249 70.6439 151.108 70.7171 150.989 70.8138C150.691 71.0518 150.352 71.2459 149.984 71.3886V72.0658C150.513 71.891 150.998 71.6231 151.407 71.2784C151.456 71.2388 151.514 71.2096 151.577 71.1932C151.64 71.1768 151.707 71.1736 151.772 71.1838C152.027 71.2361 152.267 71.3326 152.479 71.4678C152.692 71.603 152.871 71.7741 153.008 71.9713C153.667 72.7587 153.756 73.7273 153.382 74.0265C153.219 74.2086 153.012 74.3565 152.777 74.4596Z" fill="#FAFAFA"/>
<path d="M150.562 102.76V102.091L159.938 97.4136V98.0829L150.562 102.76Z" fill="#FAFAFA"/>
<path d="M146.986 111.957C146.986 113.264 145.946 113.8 144.665 113.138C143.989 112.748 143.427 112.222 143.024 111.604C142.621 110.986 142.387 110.292 142.343 109.579C142.343 108.272 143.384 107.737 144.665 108.398C145.341 108.788 145.904 109.313 146.307 109.932C146.71 110.55 146.943 111.244 146.986 111.957Z" fill="#FFA6A6"/>
<path d="M230.667 144.124L147.974 113.359L144.691 130.793L143.579 130.761L146.595 112.406L146.782 111.721L230.791 143.408L230.667 144.124Z" fill="#16110D"/>
<defs>
<filter id="filter0_d_664_7793" x="0.909668" y="235.955" width="495.34" height="538.044" filterUnits="userSpaceOnUse" color-interpolation-filters="sRGB">
<feFlood flood-opacity="0" result="BackgroundImageFix"/>
<feColorMatrix in="SourceAlpha" type="matrix" values="0 0 0 0 0 0 0 0 0 0 0 0 0 0 0 0 0 0 127 0" result="hardAlpha"/>
<feOffset dy="369"/>
<feGaussianBlur stdDeviation="12.5"/>
<feComposite in2="hardAlpha" operator="out"/>
<feColorMatrix type="matrix" values="0 0 0 0 0 0 0 0 0 0 0 0 0 0 0 0 0 0 0.25 0"/>
<feBlend mode="normal" in2="BackgroundImageFix" result="effect1_dropShadow_664_7793"/>
<feBlend mode="normal" in="SourceGraphic" in2="effect1_dropShadow_664_7793" result="shape"/>
</filter>
</defs>
</svg>
